<?xml version="1.0" encoding="UTF-8"?>
<svg xmlns="http://www.w3.org/2000/svg" width="886" height="44" viewBox="0 0 886 44">
<style>
  .pyt-art path:not([fill="rgb(255,255,255)"]):not([fill="rgb(254,254,254)"]):not([fill="rgb(253,253,253)"]):not([fill="rgb(252,252,252)"]){ fill:#000; }
  .pyt-word{ fill:#000; font-family:'Rubik',sans-serif; font-weight:400; }
  .pyt-rtl{ direction:rtl; unicode-bidi:plaintext; }
  .pyt-ltr{ direction:ltr; unicode-bidi:plaintext; }
</style>
<rect width="100%" height="100%" fill="#fff"/>
<g class="pyt-art">
<path fill="rgb(93,93,93)" stroke="rgb(93,93,93)" stroke-width="0" opacity="1" d="M 94.5 7 L 122 7.5 L 94 8 L 93 10.5 L 91 27.5 L 89.5 30 L 83.5 20 L 81 19.5 L 84.5 18 L 88 25 Q 91.7 26.4 90 20.5 L 92 8 L 94.5 7 Z " /><path fill="rgb(93,93,93)" stroke="rgb(93,93,93)" stroke-width="0" opacity="1" d="M 271.5 7 L 299 7.5 L 271.5 8 L 271.5 7 Z " /><path fill="rgb(93,93,93)" stroke="rgb(93,93,93)" stroke-width="0" opacity="1" d="M 270.5 9 L 271 12.5 L 269 18.5 L 268 30 Q 265.3 31.1 266 28.5 L 260.5 20 L 258 19.5 L 261.5 18 L 266.5 25 L 269 15.5 L 269 10.5 L 270.5 9 Z " /><path fill="rgb(93,93,93)" stroke="rgb(93,93,93)" stroke-width="0" opacity="1" d="M 100.5 12 Q 107.4 10 106 14 Q 100.6 12.5 99 15.5 Q 98.2 18.1 101.5 17 L 105 19.5 L 106 24.5 L 103.5 28 L 97.5 29 L 96.5 27 L 101.5 28 Q 104.8 27.3 104 22.5 Q 102.6 18 97 19 L 100.5 12 Z " /><path fill="rgb(93,93,93)" stroke="rgb(93,93,93)" stroke-width="0" opacity="1" d="M 112.5 12 Q 117 11 118 13.5 Q 121 16.5 120 23.5 L 116.5 29 Q 111 30 110 26.5 Q 107.7 23.3 109 16.5 L 112.5 12 Z M 114 13 L 112 15 L 112 27 L 116 28 L 117 26 L 117 16 L 116 15 Q 117 12 114 13 Z " /><path fill="rgb(93,93,93)" stroke="rgb(93,93,93)" stroke-width="0" opacity="1" d="M 153 12 L 161.5 12 L 162 14.5 L 157 29 L 155 28.5 L 160 14 L 152.5 15 L 153 13.5 L 153 12 Z " /><path fill="rgb(93,93,93)" stroke="rgb(93,93,93)" stroke-width="0" opacity="1" d="M 175.5 12 Q 180.3 11.3 181 14.5 Q 183.3 17.7 182 24.5 L 178.5 29 Q 173 30 172 26.5 L 171 17.5 L 173 13 L 175.5 12 Z M 175 13 L 174 16 L 174 26 L 175 27 Q 174 29 178 28 L 179 27 L 179 15 L 175 13 Z " /><path fill="rgb(93,93,93)" stroke="rgb(93,93,93)" stroke-width="0" opacity="1" d="M 185 12 L 194.5 12 L 195 13.5 L 190 29 Q 187.3 30.1 188 27.5 L 192 14 L 185 15 L 185 12 Z " /><path fill="rgb(93,93,93)" stroke="rgb(93,93,93)" stroke-width="0" opacity="1" d="M 280.5 12 L 282 12.5 L 282 22.5 Q 284.8 21.9 284 25 L 282 25 Q 283.7 30.2 280 29 L 280 25 L 273 25 L 273 22.5 L 280.5 12 Z M 278 16 L 274 23 L 280 23 L 280 17 L 278 16 Z " /><path fill="rgb(93,93,93)" stroke="rgb(93,93,93)" stroke-width="0" opacity="1" d="M 291.5 12 L 293 12.5 L 293 27.5 L 293.5 29 L 289 28.5 L 291 28 L 291 15.5 L 289 13.5 L 291.5 12 Z " /><path fill="rgb(93,93,93)" stroke="rgb(93,93,93)" stroke-width="0" opacity="1" d="M 40.5 18 L 44 18 Q 42.7 22.1 46 21 Q 44.3 16.9 48.5 18 L 48.5 19 Q 46.3 18.3 47 20.5 L 46 23.5 L 50 28.5 L 46 29 L 44.5 25 L 42 26.5 Q 43.3 30.3 39.5 29 L 43 24.5 L 40.5 18 Z " /><path fill="rgb(93,93,93)" stroke="rgb(93,93,93)" stroke-width="0" opacity="1" d="M 59.5 18 L 72 18.5 L 59.5 19 L 59.5 18 Z " /><path fill="rgb(93,93,93)" stroke="rgb(93,93,93)" stroke-width="0" opacity="1" d="M 130.5 18 L 143 18.5 L 130.5 19 L 130.5 18 Z " /><path fill="rgb(93,93,93)" stroke="rgb(93,93,93)" stroke-width="0" opacity="1" d="M 217.5 18 L 221 18.5 L 221 20.5 L 223.5 25 L 226 18 L 228 18.5 L 220.5 34 Q 215.7 35.3 217 32 L 221 32 L 221 30.5 L 222 27.5 L 217.5 18 Z " /><path fill="rgb(93,93,93)" stroke="rgb(93,93,93)" stroke-width="0" opacity="1" d="M 236.5 18 L 250 18.5 L 236.5 19 L 236.5 18 Z " /><path fill="rgb(93,93,93)" stroke="rgb(93,93,93)" stroke-width="0" opacity="1" d="M 307.5 18 L 309 18.5 L 307.5 19 L 307.5 18 Z " /><path fill="rgb(93,93,93)" stroke="rgb(93,93,93)" stroke-width="0" opacity="1" d="M 59.5 22 L 72 22.5 L 59.5 23 L 59.5 22 Z " /><path fill="rgb(93,93,93)" stroke="rgb(93,93,93)" stroke-width="0" opacity="1" d="M 130.5 22 L 143 22.5 L 130.5 23 L 130.5 22 Z " /><path fill="rgb(93,93,93)" stroke="rgb(93,93,93)" stroke-width="0" opacity="1" d="M 236.5 22 L 250 22.5 L 236.5 23 L 236.5 22 Z " /><path fill="rgb(93,93,93)" stroke="rgb(93,93,93)" stroke-width="0" opacity="1" d="M 307.5 22 L 309 22.5 L 307.5 23 L 307.5 22 Z " /><path fill="rgb(93,93,93)" stroke="rgb(93,93,93)" stroke-width="0" opacity="1" d="M 165 27 Q 169.1 25.7 168 29 Q 163.9 30.3 165 27 Z " /><path fill="rgb(93,93,93)" stroke="rgb(93,93,93)" stroke-width="0" opacity="1" d="M 204 27 Q 209.2 24.9 208 29.5 L 206.5 29 Q 202.8 30 204 27 Z " /><path fill="rgb(93,93,93)" stroke="rgb(93,93,93)" stroke-width="0" opacity="1" d="M 206.5 31 L 205.5 33 L 206.5 31 Z " />
</g>
<g class="pyt-text">
<text class="pyt-word pyt-ltr" x="311" y="26" font-size="15" text-anchor="start">=6.4</text>
<text class="pyt-word pyt-ltr" x="368" y="28" font-size="15" text-anchor="start">(a</text>
<text class="pyt-word pyt-ltr" x="558" y="29" font-size="24" text-anchor="start">x=10,y=+I25=1118</text>
<text class="pyt-word pyt-ltr" x="852" y="28" font-size="15" text-anchor="start">(x</text>
</g>
</svg>
