<?xml version="1.0" encoding="UTF-8"?>
<svg xmlns="http://www.w3.org/2000/svg" width="1489" height="2105" viewBox="0 0 1489 2105">
<style>
  .pyt-art path:not([fill="rgb(255,255,255)"]):not([fill="rgb(254,254,254)"]):not([fill="rgb(253,253,253)"]):not([fill="rgb(252,252,252)"]){ fill:#000; }
  .pyt-word{ fill:#000; font-family:'Rubik',sans-serif; font-weight:400; }
  .pyt-rtl{ direction:rtl; unicode-bidi:plaintext; }
  .pyt-ltr{ direction:ltr; unicode-bidi:plaintext; }
</style>
<rect width="100%" height="100%" fill="#fff"/>
<g class="pyt-art">
<path fill="rgb(137,137,137)" stroke="rgb(137,137,137)" stroke-width="0" opacity="1" d="M 264.5 339 L 381.5 390 L 383.5 392 L 390.5 394 L 392.5 396 L 406.5 401 L 417.5 407 L 422.5 408 L 424.5 410 L 472.5 430 L 482 435.5 Q 482.5 439.5 479.5 440 L 474.5 441 L 467.5 445 L 450.5 451 L 431.5 460 L 390.5 476 L 381.5 481 L 378.5 481 L 371.5 485 L 335.5 499 L 333.5 501 L 330.5 501 L 323.5 505 L 282.5 521 L 275.5 525 L 270.5 526 L 264.5 530 L 157 530 L 157 525.5 L 166 509.5 L 173 499.5 L 173 497.5 L 264.5 339 Z M 266 344 L 266 426 L 267 432 L 309 432 L 310 433 L 385 433 L 386 434 L 455 434 L 456 435 L 470 435 L 466 431 L 459 429 L 432 416 L 427 415 L 421 411 L 413 409 L 396 400 L 393 400 L 382 395 L 376 391 L 368 389 L 355 382 L 323 369 L 319 366 L 300 359 L 294 355 L 291 355 L 266 344 Z M 261 353 L 197 463 L 192 474 L 177 498 L 164 523 L 166 526 L 263 526 L 264 525 L 264 501 L 263 500 L 263 441 L 260 440 L 263 435 L 262 361 L 261 353 Z M 267 436 L 267 522 L 269 523 L 307 508 L 314 504 L 317 504 L 319 502 L 343 493 L 350 489 L 360 486 L 362 484 L 365 484 L 374 479 L 382 477 L 384 475 L 408 466 L 422 459 L 430 457 L 432 455 L 456 446 L 458 444 L 468 441 L 469 439 L 400 438 L 399 437 L 377 437 L 376 436 L 267 436 Z " /><path fill="rgb(137,137,137)" stroke="rgb(137,137,137)" stroke-width="0" opacity="1" d="M 907.5 407 L 920 407.5 L 907.5 408 L 907.5 407 Z " /><path fill="rgb(137,137,137)" stroke="rgb(137,137,137)" stroke-width="0" opacity="1" d="M 241 414 L 255.5 414 L 257 415.5 L 255.5 419 L 254 416 L 247.5 416 L 247 417.5 L 246 421.5 Q 247 424 251.5 423 L 254 421.5 L 255 426.5 Q 252.7 430.2 250.5 425 Q 246.1 423.5 247 426.5 Q 244.7 427.8 246 432.5 Q 247.5 435.5 253.5 434 L 258 431 L 257 436 L 241.5 436 L 240 434.5 L 241 433.5 L 241 414 Z " /><path fill="rgb(137,137,137)" stroke="rgb(137,137,137)" stroke-width="0" opacity="1" d="M 253.5 443 Q 257.3 441.8 256 445.5 Q 255.5 449.5 250.5 449 L 249 447.5 L 253.5 443 Z " /><path fill="rgb(137,137,137)" stroke="rgb(137,137,137)" stroke-width="0" opacity="1" d="M 243.5 452 Q 247.3 450.8 246 454.5 L 240.5 458 Q 237.8 456.8 240 455.5 Q 239.3 453.3 241.5 454 L 243.5 452 Z " /><path fill="rgb(137,137,137)" stroke="rgb(137,137,137)" stroke-width="0" opacity="1" d="M 232.5 461 Q 236.9 459.5 236 462.5 L 235 465 L 230.5 467 L 229 464.5 L 232.5 461 Z " /><path fill="rgb(137,137,137)" stroke="rgb(137,137,137)" stroke-width="0" opacity="1" d="M 224.5 469 L 226 471.5 L 220.5 476 L 219 473.5 L 224.5 469 Z " /><path fill="rgb(137,137,137)" stroke="rgb(137,137,137)" stroke-width="0" opacity="1" d="M 213.5 478 Q 216.5 477.1 215 481.5 L 209 485 Q 208 480.3 211.5 479 L 213.5 478 Z " /><path fill="rgb(137,137,137)" stroke="rgb(137,137,137)" stroke-width="0" opacity="1" d="M 203.5 487 L 206 488.5 L 199.5 494 Q 196.8 492.8 199 491.5 L 201.5 488 L 203.5 487 Z " /><path fill="rgb(137,137,137)" stroke="rgb(137,137,137)" stroke-width="0" opacity="1" d="M 192.5 496 Q 196.3 494.8 195 498.5 Q 192.9 502.1 188 502 Q 186.5 498.3 189.5 499 L 192.5 496 Z " /><path fill="rgb(137,137,137)" stroke="rgb(137,137,137)" stroke-width="0" opacity="1" d="M 183.5 504 L 185 506.5 L 183 510 L 178 511 Q 177.3 506.3 181.5 505 L 183.5 504 Z " /><path fill="rgb(137,137,137)" stroke="rgb(137,137,137)" stroke-width="0" opacity="1" d="M 172.5 513 L 174 516.5 Q 172.7 520.8 168 520 L 168 516 L 169.5 516 L 172.5 513 Z " />
</g>
<g class="pyt-text">
<text class="pyt-word pyt-ltr" x="1283" y="203" font-size="20" text-anchor="start">19</text>
<text class="pyt-word pyt-rtl" x="1376" y="319" font-size="16" text-anchor="end">הישר</text>
<text class="pyt-word pyt-ltr" x="1259" y="318" font-size="21" text-anchor="start">AB‏</text>
<text class="pyt-word pyt-rtl" x="1249" y="319" font-size="16" text-anchor="end">הוא</text>
<text class="pyt-word pyt-rtl" x="1193" y="319" font-size="16" text-anchor="end">בסיס</text>
<text class="pyt-word pyt-rtl" x="1121" y="318" font-size="21" text-anchor="end">המשולש</text>
<text class="pyt-word pyt-ltr" x="952" y="319" font-size="16" text-anchor="start">mv‏</text>
<text class="pyt-word pyt-rtl" x="943" y="323" font-size="21" text-anchor="end">השוקיים</text>
<text class="pyt-word pyt-ltr" x="732" y="318" font-size="21" text-anchor="start">AABD‏</text>
<text class="pyt-word pyt-rtl" x="718" y="319" font-size="16" text-anchor="end">וניצב</text>
<text class="pyt-word pyt-rtl" x="648" y="318" font-size="21" text-anchor="end">במשולש</text>
<text class="pyt-word pyt-ltr" x="254" y="329" font-size="21" text-anchor="start">A‏</text>
<text class="pyt-word pyt-rtl" x="1376" y="365" font-size="17" text-anchor="end">ישר</text>
<text class="pyt-word pyt-rtl" x="1322" y="364" font-size="16" text-anchor="end">הזווית</text>
<text class="pyt-word pyt-ltr" x="1128" y="362" font-size="21" text-anchor="start">.AABC‏</text>
<text class="pyt-word pyt-rtl" x="1117" y="363" font-size="21" text-anchor="end">במשולש</text>
<text class="pyt-word pyt-ltr" x="914" y="362" font-size="20" text-anchor="start">AABD‏</text>
<text class="pyt-word pyt-rtl" x="901" y="368" font-size="21" text-anchor="end">שהיקפו</text>
<text class="pyt-word pyt-ltr" x="773" y="364" font-size="19" text-anchor="start">36</text>
<text class="pyt-word pyt-rtl" x="763" y="368" font-size="20" text-anchor="end">סיימ,</text>
<text class="pyt-word pyt-rtl" x="693" y="364" font-size="16" text-anchor="end">הישר</text>
<text class="pyt-word pyt-ltr" x="578" y="363" font-size="21" text-anchor="start">DE‏</text>
<text class="pyt-word pyt-rtl" x="1375" y="410" font-size="17" text-anchor="end">הוא</text>
<text class="pyt-word pyt-rtl" x="1320" y="409" font-size="16" text-anchor="end">חוצה</text>
<text class="pyt-word pyt-rtl" x="1248" y="409" font-size="16" text-anchor="end">זווית</text>
<text class="pyt-word pyt-rtl" x="1179" y="409" font-size="16" text-anchor="end">הראש.</text>
<text class="pyt-word pyt-rtl" x="1089" y="413" font-size="21" text-anchor="end">נתון:</text>
<text class="pyt-word pyt-ltr" x="991" y="409" font-size="19" text-anchor="start">13</text>
<text class="pyt-word pyt-rtl" x="982" y="409" font-size="16" text-anchor="end">סיימ</text>
<text class="pyt-word pyt-ltr" x="905" y="402" font-size="10" text-anchor="start">=</text>
<text class="pyt-word pyt-ltr" x="837" y="408" font-size="21" text-anchor="start">LAD‏</text>
<text class="pyt-word pyt-rtl" x="1375" y="461" font-size="16" text-anchor="end">א.</text>
<text class="pyt-word pyt-rtl" x="1334" y="462" font-size="17" text-anchor="end">חשבו</text>
<text class="pyt-word pyt-rtl" x="1261" y="461" font-size="16" text-anchor="end">את</text>
<text class="pyt-word pyt-ltr" x="1158" y="462" font-size="16" text-anchor="start">now‏</text>
<text class="pyt-word pyt-rtl" x="1149" y="461" font-size="21" text-anchor="end">המשולש</text>
<text class="pyt-word pyt-ltr" x="488" y="442" font-size="21" text-anchor="start">D</text>
<text class="pyt-word pyt-ltr" x="932" y="461" font-size="20" text-anchor="start">AADE‏</text>
<text class="pyt-word pyt-rtl" x="1373" y="514" font-size="15" text-anchor="end">ב.</text>
<text class="pyt-word pyt-rtl" x="1333" y="518" font-size="22" text-anchor="end">נתון:</text>
<text class="pyt-word pyt-rtl" x="1263" y="514" font-size="17" text-anchor="end">שטחי</text>
<text class="pyt-word pyt-rtl" x="1187" y="513" font-size="21" text-anchor="end">המשולשים</text>
<text class="pyt-word pyt-ltr" x="951" y="513" font-size="20" text-anchor="start">AADE‏</text>
<text class="pyt-word pyt-rtl" x="937" y="514" font-size="16" text-anchor="end">ו-</text>
<text class="pyt-word pyt-ltr" x="821" y="513" font-size="20" text-anchor="start">AABC‏</text>
<text class="pyt-word pyt-rtl" x="808" y="514" font-size="17" text-anchor="end">שווים</text>
<text class="pyt-word pyt-rtl" x="729" y="514" font-size="15" text-anchor="end">זה</text>
<text class="pyt-word pyt-rtl" x="691" y="513" font-size="21" text-anchor="end">לזה.</text>
<text class="pyt-word pyt-rtl" x="1334" y="556" font-size="17" text-anchor="end">חשבו</text>
<text class="pyt-word pyt-rtl" x="1261" y="555" font-size="16" text-anchor="end">את</text>
<text class="pyt-word pyt-rtl" x="1215" y="560" font-size="22" text-anchor="end">אורך</text>
<text class="pyt-word pyt-rtl" x="1146" y="555" font-size="16" text-anchor="end">הניצב</text>
<text class="pyt-word pyt-ltr" x="1017" y="554" font-size="22" text-anchor="start">BC‏</text>
<text class="pyt-word pyt-ltr" x="260" y="554" font-size="21" text-anchor="start">8</text>
<text class="pyt-word pyt-ltr" x="132" y="549" font-size="20" text-anchor="start">0</text>
<text class="pyt-word pyt-rtl" x="1372" y="604" font-size="16" text-anchor="end">ג.</text>
<text class="pyt-word pyt-rtl" x="1334" y="604" font-size="16" text-anchor="end">חשבו</text>
<text class="pyt-word pyt-rtl" x="1261" y="604" font-size="16" text-anchor="end">את</text>
<text class="pyt-word pyt-ltr" x="1158" y="604" font-size="16" text-anchor="start">now‏</text>
<text class="pyt-word pyt-rtl" x="1149" y="604" font-size="17" text-anchor="end">הטרפז</text>
<text class="pyt-word pyt-rtl" x="1061" y="603" font-size="22" text-anchor="end">(51י130.</text>
<text class="pyt-word pyt-ltr" x="1164" y="1818" font-size="20" text-anchor="start">19</text>
<text class="pyt-word pyt-rtl" x="1297" y="1907" font-size="17" text-anchor="end">א.</text>
<text class="pyt-word pyt-ltr" x="1230" y="1907" font-size="20" text-anchor="start">30</text>
<text class="pyt-word pyt-ltr" x="1141" y="1907" font-size="17" text-anchor="start">&quot;no‏</text>
<text class="pyt-word pyt-rtl" x="1116" y="1907" font-size="17" text-anchor="end">ב.</text>
<text class="pyt-word pyt-ltr" x="1067" y="1907" font-size="19" text-anchor="start">6</text>
<text class="pyt-word pyt-rtl" x="1058" y="1907" font-size="17" text-anchor="end">סיימ.</text>
<text class="pyt-word pyt-rtl" x="970" y="1907" font-size="18" text-anchor="end">ג.</text>
<text class="pyt-word pyt-ltr" x="909" y="1907" font-size="20" text-anchor="start">45</text>
<text class="pyt-word pyt-rtl" x="901" y="1907" font-size="17" text-anchor="end">סמ&quot;יר.</text>
</g>
</svg>
