<?xml version="1.0" encoding="UTF-8"?>
<svg xmlns="http://www.w3.org/2000/svg" width="1489" height="2105" viewBox="0 0 1489 2105">
<style>
  .pyt-art path:not([fill="rgb(255,255,255)"]):not([fill="rgb(254,254,254)"]):not([fill="rgb(253,253,253)"]):not([fill="rgb(252,252,252)"]){ fill:#000; }
  .pyt-word{ fill:#000; font-family:'Rubik',sans-serif; font-weight:400; }
  .pyt-rtl{ direction:rtl; unicode-bidi:plaintext; }
  .pyt-ltr{ direction:ltr; unicode-bidi:plaintext; }
</style>
<rect width="100%" height="100%" fill="#fff"/>
<g class="pyt-art">
<path fill="rgb(103,102,102)" stroke="rgb(103,102,102)" stroke-width="0" opacity="1" d="M 873.5 461 L 877 462.5 L 888 483.5 L 903 507.5 L 903 509.5 L 1004 682.5 L 1004 942 L 1000.5 942 L 991 932.5 Q 991.8 930.3 989.5 931 L 987 927 L 985.5 927 L 974 915.5 L 974 914 L 972 914 Q 973.1 911.3 970.5 912 L 961 902.5 L 961 901 L 957 898.5 Q 957.8 896.3 955.5 897 L 944 885.5 L 944 884 L 942 884 Q 943.1 881.3 940.5 882 L 931 872.5 L 931 871 L 929 871 L 929 869 L 927 869 L 927 867 L 925 867 Q 926.1 864.3 923.5 865 L 918 858 L 916 858 L 916 856 L 914 856 L 914 854 L 912 854 L 912 852 L 910 852 L 910 850 L 908 850 L 908 848 Q 905.3 849.1 906 846.5 L 903 845 L 903 843 L 901 843 L 901 841 L 899 841 L 899 839 L 897 839 L 897 837 L 895 837 L 895 835 L 893 835 L 893 833 Q 890.3 834.1 891 831.5 L 888 830 L 888 828 L 886 828 L 886 826 L 884 826 L 884 824 L 882 824 L 882 822 L 880 822 L 880 820 L 878 820 L 878 818 Q 875.3 819.1 876 816.5 L 871 813 L 871 811 L 869 811 L 869 809 L 867 809 L 867 807 L 865 807 L 865 805 L 863 805 L 863 803 Q 860.3 804.1 861 801.5 L 856 798 L 856 796 L 854 796 L 854 794 L 852 794 L 852 792 L 850 792 L 850 790 L 848 790 L 848 788 Q 845.3 789.1 846 786.5 L 841 783 L 841 781 L 839 781 L 839 779 L 837 779 L 837 777 L 835 777 L 835 775 L 833 775 L 833 773 Q 830.3 774.1 831 771.5 L 824 766 L 824 764 L 822 764 L 822 762 L 820 762 L 820 760 Q 817.3 761.1 818 758.5 L 808.5 749 L 807 749 L 807 747 L 805 747 L 805 745 L 803 745 L 803 743 Q 800.3 744.1 801 741.5 L 792 734 L 792 732 L 790 732 L 790 730 Q 787.3 731.1 788 728.5 L 746.5 687 L 745 687 Q 744.2 681.5 747 678.5 L 873.5 461 Z M 873 468 L 750 682 L 751 683 L 999 683 L 985 657 L 876 470 Q 877 466 873 468 Z M 751 686 L 751 688 L 1000 936 L 1001 935 L 1001 713 L 1000 712 L 1000 709 L 979 709 L 978 707 L 981 708 L 1000 708 L 1001 707 L 1001 689 L 1000 686 L 981 686 L 979 688 L 977 686 L 751 686 Z " /><path fill="rgb(103,102,102)" stroke="rgb(103,102,102)" stroke-width="0" opacity="1" d="M 722 674 L 732.5 674 L 737 677.5 L 738 685.5 L 736 689 L 730.5 691 L 728 689.5 Q 732.7 689.7 734 686.5 L 735 682.5 L 730.5 675 Q 726.8 674.3 726 676.5 Q 724.9 686.1 727 691 Q 723.2 692 722 689.5 L 722 674 Z " /><path fill="rgb(103,102,102)" stroke="rgb(103,102,102)" stroke-width="0" opacity="1" d="M 1013.5 674 L 1023.5 674 L 1026 676.5 L 1027 678.5 L 1025 682.5 Q 1028 683.5 1027 688.5 Q 1026.3 691.8 1021.5 691 L 1018.5 690 L 1014 691 Q 1016 686.5 1015 677.5 L 1013.5 674 Z M 1020 675 L 1018 677 Q 1017 681 1020 682 L 1023 680 L 1022 677 L 1020 675 Z M 1018 683 L 1018 689 L 1022 689 L 1023 686 Q 1022 682 1018 683 Z " /><path fill="rgb(103,102,102)" stroke="rgb(103,102,102)" stroke-width="0" opacity="1" d="M 999.5 957 L 1003 957.5 Q 997 959.5 999 969.5 L 1002.5 974 Q 997 975 996 971.5 L 995 962.5 L 999.5 957 Z " /><path fill="rgb(103,102,102)" stroke="rgb(103,102,102)" stroke-width="0" opacity="1" d="M 1005.5 957 Q 1012.3 955 1010 961 L 1008 961 Q 1009.1 958.3 1006.5 959 L 1005.5 957 Z " /><path fill="rgb(103,102,102)" stroke="rgb(103,102,102)" stroke-width="0" opacity="1" d="M 1158 1013 L 1174.5 1013 L 1181 1018.5 Q 1183.3 1021.7 1182 1028.5 L 1179 1034 L 1174.5 1036 L 1148 1036 Q 1147 1033 1150 1034 L 1150 1031.5 L 1147.5 1029 L 1139 1029 L 1138 1034 Q 1141 1033 1140 1036 L 1132.5 1036 L 1131.5 1035 L 1126.5 1036 L 1124.5 1035 L 1119.5 1038 L 1119 1034.5 Q 1121.3 1033.3 1118.5 1032 Q 1112.6 1031.4 1110 1027.5 L 1120 1021.5 L 1119 1017.5 L 1120.5 1018 L 1125.5 1020 L 1128.5 1018 L 1131 1019 Q 1132.3 1022 1128.5 1021 Q 1124.3 1022.7 1127 1024.5 L 1126 1031.5 Q 1127.4 1034.6 1132.5 1034 L 1135 1033 L 1141 1021.5 L 1143 1014 L 1147 1015.5 L 1154 1031.5 L 1156.5 1034 L 1161 1033 L 1161 1016.5 L 1159.5 1016 L 1158 1013 Z M 1166 1016 L 1166 1034 Q 1172 1035 1175 1032 L 1177 1028 L 1176 1020 Q 1173 1015 1166 1016 Z M 1144 1020 L 1141 1026 L 1147 1026 L 1144 1020 Z M 1121 1025 L 1116 1028 L 1121 1030 L 1124 1030 L 1124 1025 L 1121 1025 Z " /><path fill="rgb(103,102,102)" stroke="rgb(103,102,102)" stroke-width="0" opacity="1" d="M 1192.5 1013 Q 1199.9 1011.6 1202.5 1015 L 1205 1014 L 1205 1020 L 1203 1020 Q 1204.1 1017.3 1201.5 1018 Q 1200 1014.5 1193.5 1016 L 1190 1018.5 L 1188 1026.5 L 1191.5 1032 L 1198.5 1034 L 1204.5 1031 L 1200.5 1036 Q 1189.3 1038.2 1186 1032.5 Q 1182.2 1029.3 1184 1020.5 L 1188.5 1015 L 1192.5 1013 Z " /><path fill="rgb(103,102,102)" stroke="rgb(103,102,102)" stroke-width="0" opacity="1" d="M 942 1122 Q 944.7 1120.9 944 1123.5 L 952 1139.5 L 955.5 1143 L 959 1142 L 959 1125.5 L 957.5 1124 Q 954.9 1124.7 956 1122 L 972.5 1122 L 978 1125.5 Q 982 1129 980 1138.5 L 978 1142 L 972.5 1145 L 946 1145 L 948 1140.5 L 947 1138 L 937 1138 L 937 1142.5 L 938 1145 L 931 1145 L 931 1142.5 L 936 1136.5 L 942 1122 Z M 966 1124 L 964 1126 L 964 1142 L 973 1141 L 976 1135 L 974 1128 Q 971 1124 966 1124 Z M 942 1130 L 939 1135 L 945 1135 L 944 1132 L 942 1130 Z " /><path fill="rgb(103,102,102)" stroke="rgb(103,102,102)" stroke-width="0" opacity="1" d="M 989.5 1122 Q 998.8 1120.8 1003 1124.5 L 1004 1128.5 L 1002.5 1129 Q 999.8 1124.8 993.5 1124 L 989 1126 Q 986 1129.3 987 1137.5 Q 988.8 1143.8 998.5 1142 L 1002 1141 Q 1003.1 1143.7 1000.5 1143 L 998.5 1145 L 989.5 1145 L 983 1139.5 L 981 1132.5 L 983 1127.5 L 986.5 1124 L 989.5 1122 Z " /><path fill="rgb(103,102,102)" stroke="rgb(103,102,102)" stroke-width="0" opacity="1" d="M 1030 1233 L 1033 1234.5 L 1040 1250.5 L 1042.5 1253 L 1044.5 1254 L 1047 1253 L 1047 1235.5 L 1044 1235 L 1044 1233 L 1060.5 1233 L 1064 1235.5 L 1065 1241.5 L 1063 1246 Q 1065.7 1244.9 1065 1247.5 L 1066 1251.5 L 1065 1254 L 1060.5 1256 L 1045.5 1256 L 1043.5 1256 L 1035.5 1256 L 1034 1254.5 L 1036 1250.5 Q 1034.5 1246.5 1027.5 1248 L 1025 1249 Q 1024 1253.3 1027 1254.5 Q 1025.1 1257.8 1019 1256 L 1019 1253 Q 1021.7 1254.1 1021 1251.5 L 1028 1239.5 L 1030 1233 Z M 1052 1235 L 1052 1244 L 1058 1244 Q 1061 1243 1060 1237 L 1057 1235 L 1052 1235 Z M 1031 1240 L 1027 1245 Q 1028 1247 1033 1246 L 1031 1240 Z M 1054 1246 L 1052 1248 L 1052 1253 L 1059 1253 L 1061 1250 Q 1059 1246 1054 1246 Z " /><path fill="rgb(103,102,102)" stroke="rgb(103,102,102)" stroke-width="0" opacity="1" d="M 1004.5 1251 L 1007 1252.5 L 1005.5 1256 L 1003 1254.5 L 1004.5 1251 Z " /><path fill="rgb(103,102,102)" stroke="rgb(103,102,102)" stroke-width="0" opacity="1" d="M 1275.5 1386 L 1312.5 1386 L 1314 1387.5 L 1314 1425.5 L 1312.5 1427 L 1275.5 1427 L 1274 1425.5 L 1274 1387.5 L 1275.5 1386 Z M 1277 1389 L 1277 1424 L 1311 1424 L 1311 1389 L 1277 1389 Z " /><path fill="rgb(103,102,102)" stroke="rgb(103,102,102)" stroke-width="0" opacity="1" d="M 1181.5 1388 L 1213.5 1388 L 1215 1389.5 L 1213.5 1391 L 1183.5 1391 L 1181 1393.5 L 1181 1399.5 Q 1177.8 1398.5 1179 1404.5 L 1175 1412.5 L 1175 1419 Q 1171.3 1417.8 1173 1423 L 1169 1423 L 1169 1419 L 1165 1417 L 1165 1413 L 1163.5 1413 L 1161.5 1413 Q 1159.3 1413.8 1160 1411.5 Q 1161 1408 1166.5 1409 L 1171 1415.5 L 1171 1418 Q 1174.5 1419.1 1173 1411.5 L 1174 1406.5 L 1176 1404.5 L 1176 1400 Q 1179.5 1401.1 1178 1393.5 L 1181.5 1388 Z " /><path fill="rgb(103,102,102)" stroke="rgb(103,102,102)" stroke-width="0" opacity="1" d="M 1099.5 1396 L 1103 1397.5 L 1103 1415.5 L 1104.5 1417 L 1106 1417.5 Q 1104.3 1420.8 1097.5 1419 L 1096.5 1417 L 1099 1415.5 L 1099 1401.5 L 1097.5 1400 Q 1094.9 1400.7 1096 1398 L 1099.5 1396 Z " /><path fill="rgb(103,102,102)" stroke="rgb(103,102,102)" stroke-width="0" opacity="1" d="M 1115 1396 L 1122.5 1396 L 1124 1397.5 L 1123 1400 L 1117.5 1400 L 1117 1401.5 L 1123 1406.5 L 1124 1410.5 L 1120.5 1417 Q 1118.5 1420 1112.5 1419 L 1111 1416 L 1117.5 1417 Q 1121.3 1415.8 1120 1409.5 L 1111 1404.5 L 1115 1396 Z " /><path fill="rgb(103,102,102)" stroke="rgb(103,102,102)" stroke-width="0" opacity="1" d="M 1185.5 1396 L 1189 1397.5 L 1189 1415.5 L 1190.5 1417 L 1192 1417.5 Q 1190.3 1420.8 1183.5 1419 L 1182.5 1417 L 1185 1415.5 L 1185 1400.5 L 1182 1400 L 1182 1398 L 1185.5 1396 Z " /><path fill="rgb(103,102,102)" stroke="rgb(103,102,102)" stroke-width="0" opacity="1" d="M 1201.5 1396 Q 1207.8 1394.8 1209 1398.5 L 1211 1401.5 L 1211 1413.5 L 1209 1417 Q 1205.9 1416.3 1206.5 1419 L 1201.5 1419 L 1197 1413.5 L 1197 1401.5 L 1201.5 1396 Z M 1203 1399 L 1200 1405 Q 1199 1412 1202 1415 L 1202 1416 L 1206 1416 L 1208 1411 Q 1209 1404 1206 1401 Q 1207 1397 1203 1399 Z " /><path fill="rgb(103,102,102)" stroke="rgb(103,102,102)" stroke-width="0" opacity="1" d="M 1143.5 1402 Q 1142.6 1407.4 1145.5 1409 Q 1153.1 1407.5 1152 1411 L 1144 1412 L 1144 1418 L 1142 1418 L 1142 1412 L 1136.5 1412 L 1134 1411 L 1134.5 1409 L 1142 1409 L 1142 1403.5 L 1143.5 1402 Z " /><path fill="rgb(103,102,102)" stroke="rgb(103,102,102)" stroke-width="0" opacity="1" d="M 1320.5 1411 L 1323 1412.5 L 1323 1423.5 Q 1325.7 1422.9 1325 1426 L 1318.5 1427 L 1317 1424 L 1319 1423.5 L 1319 1415 Q 1316 1416 1317 1413 L 1320.5 1411 Z " /><path fill="rgb(103,102,102)" stroke="rgb(103,102,102)" stroke-width="0" opacity="1" d="M 1274 1441 L 1303.5 1441 L 1304 1443 L 1279.5 1443 L 1277 1444 L 1277 1478 L 1303.5 1478 L 1304 1481 L 1274 1481 L 1274 1441 Z " /><path fill="rgb(103,102,102)" stroke="rgb(103,102,102)" stroke-width="0" opacity="1" d="M 1177.5 1443 L 1213.5 1443 L 1214 1445 L 1179.5 1445 L 1179 1449 L 1177 1449.5 L 1177 1455.5 Q 1173.3 1457.4 1175 1464 Q 1171.5 1462.9 1173 1470.5 Q 1169.8 1472 1171 1477 Q 1165.8 1479.1 1167 1474.5 L 1160.5 1466 L 1160 1468 Q 1157 1469.3 1158 1465.5 Q 1159 1462 1164.5 1463 L 1170.5 1471 L 1171 1464.5 L 1173 1462.5 L 1174 1449.5 L 1177.5 1443 Z " /><path fill="rgb(103,102,102)" stroke="rgb(103,102,102)" stroke-width="0" opacity="1" d="M 1098.5 1450 L 1101 1451 L 1101 1470.5 L 1102.5 1471 L 1103.5 1473 L 1097.5 1474 L 1094 1472.5 L 1097 1471 L 1097 1455.5 L 1095.5 1455 Q 1092 1453 1096.5 1451 L 1098.5 1450 Z " /><path fill="rgb(103,102,102)" stroke="rgb(103,102,102)" stroke-width="0" opacity="1" d="M 1114.5 1450 Q 1120.5 1448.5 1122 1451.5 L 1119.5 1455 L 1114 1455.5 L 1121 1460.5 L 1122 1465.5 L 1116.5 1473 L 1112.5 1474 L 1109 1473 Q 1107.5 1469.3 1110.5 1470 L 1117 1471 Q 1115.9 1468.3 1118.5 1469 L 1118 1467.5 Q 1119 1463 1116.5 1462 L 1110 1460 Q 1110 1453.3 1114.5 1450 Z " /><path fill="rgb(103,102,102)" stroke="rgb(103,102,102)" stroke-width="0" opacity="1" d="M 1185.5 1450 Q 1191.5 1448.5 1193 1451.5 L 1190.5 1455 L 1186 1455.5 L 1192 1460.5 L 1193 1466.5 L 1191 1471 L 1183.5 1474 L 1180 1471.5 L 1182.5 1470 L 1187.5 1471 Q 1190.8 1470.3 1190 1465.5 L 1187.5 1462 L 1181 1460 L 1185.5 1450 Z " /><path fill="rgb(103,102,102)" stroke="rgb(103,102,102)" stroke-width="0" opacity="1" d="M 1202.5 1450 L 1205.5 1450 L 1209 1452 L 1211 1455.5 L 1211 1468.5 L 1206.5 1473 L 1201.5 1473 L 1197 1468.5 L 1197 1456.5 L 1199 1452 L 1202.5 1450 Z M 1202 1453 L 1200 1459 L 1201 1469 L 1205 1471 L 1207 1469 L 1208 1465 Q 1209 1458 1206 1455 L 1206 1453 L 1202 1453 Z " /><path fill="rgb(103,102,102)" stroke="rgb(103,102,102)" stroke-width="0" opacity="1" d="M 1138 1457 L 1141 1457 L 1141 1463 L 1146.5 1463 L 1149 1464.5 L 1147.5 1466 L 1141 1466 Q 1142.5 1471.4 1139.5 1473 Q 1136.5 1471.4 1138 1466 L 1130.5 1466 L 1130 1464 L 1138 1463 L 1138 1457 Z " /><path fill="rgb(103,102,102)" stroke="rgb(103,102,102)" stroke-width="0" opacity="1" d="M 1274 1497 L 1314 1497 L 1314 1537 L 1274 1537 L 1274 1497 Z M 1277 1500 L 1277 1534 L 1279 1535 L 1310 1535 L 1311 1534 L 1311 1500 L 1277 1500 Z " /><path fill="rgb(103,102,102)" stroke="rgb(103,102,102)" stroke-width="0" opacity="1" d="M 1179.5 1499 L 1211.5 1499 L 1213 1500.5 L 1211.5 1502 L 1181 1502 Q 1182 1506.3 1179 1505.5 L 1179 1511.5 L 1177 1513.5 L 1177 1519.5 Q 1173.3 1521.4 1175 1528 Q 1171.3 1526.7 1173 1532.5 Q 1172.3 1534.8 1168.5 1534 L 1162.5 1522 L 1162 1524 Q 1156.8 1525.7 1158 1522 Q 1162.3 1523 1161.5 1520 L 1166 1520 Q 1165 1523 1168 1522 L 1168 1524.5 L 1170.5 1529 L 1171 1527 Q 1174.5 1528.1 1173 1520.5 Q 1175.5 1519 1174 1513.5 L 1176 1511.5 L 1176 1506.5 L 1178 1504.5 Q 1177 1500 1179.5 1499 Z " /><path fill="rgb(103,102,102)" stroke="rgb(103,102,102)" stroke-width="0" opacity="1" d="M 1094 1507 L 1101.5 1507 L 1104 1509.5 L 1105 1514.5 L 1097 1524.5 L 1103.5 1525 Q 1104.8 1522.8 1106 1525.5 L 1103.5 1530 L 1092.5 1530 L 1091 1528.5 L 1098 1520 Q 1101 1521.3 1100 1517.5 Q 1102.2 1516.2 1101 1511.5 Q 1099.5 1507.8 1094 1509 Q 1095 1512 1092 1511 L 1094 1507 Z " /><path fill="rgb(103,102,102)" stroke="rgb(103,102,102)" stroke-width="0" opacity="1" d="M 1113.5 1507 Q 1119.8 1505.8 1121 1509.5 L 1123 1512.5 L 1123 1523.5 L 1117.5 1530 Q 1112 1531 1111 1527.5 L 1109 1524.5 L 1108 1515.5 L 1111 1508 L 1113.5 1507 Z M 1114 1509 L 1112 1515 Q 1111 1523 1115 1527 Q 1119 1528 1119 1525 L 1119 1513 L 1118 1511 L 1114 1509 Z " /><path fill="rgb(103,102,102)" stroke="rgb(103,102,102)" stroke-width="0" opacity="1" d="M 1183.5 1507 L 1187 1507.5 L 1187 1526.5 L 1188.5 1527 Q 1191.5 1528.5 1188.5 1530 Q 1181.8 1531.8 1180 1528.5 L 1184 1527 L 1184 1512.5 L 1182.5 1511 L 1180 1509.5 L 1183.5 1507 Z " /><path fill="rgb(103,102,102)" stroke="rgb(103,102,102)" stroke-width="0" opacity="1" d="M 1199.5 1507 L 1204.5 1507 L 1209 1511.5 L 1209 1524.5 L 1207 1528 L 1203.5 1530 L 1200.5 1530 L 1197 1528 L 1195 1524.5 L 1195 1512.5 L 1199.5 1507 Z M 1202 1509 L 1198 1516 Q 1197 1522 1200 1526 L 1200 1527 L 1204 1527 L 1206 1522 L 1205 1512 L 1202 1509 Z " /><path fill="rgb(103,102,102)" stroke="rgb(103,102,102)" stroke-width="0" opacity="1" d="M 1140 1513 L 1143 1513 L 1143 1520 L 1149.5 1520 L 1150 1522 L 1143 1522 L 1143 1529 L 1140 1529 Q 1141.5 1523.6 1138.5 1522 Q 1130.9 1523.5 1132 1520 Q 1138.1 1521.7 1140 1518.5 L 1140 1513 Z " /><path fill="rgb(103,102,102)" stroke="rgb(103,102,102)" stroke-width="0" opacity="1" d="M 1318 1522 Q 1322.6 1520.8 1324 1523.5 L 1323 1528.5 L 1326 1532.5 L 1322.5 1537 Q 1315.6 1539 1317 1535 L 1323 1535 L 1323 1532 L 1319 1530.5 Q 1318.3 1527.9 1321 1529 L 1321 1524 Q 1316.9 1525.3 1318 1522 Z " /><path fill="rgb(103,102,102)" stroke="rgb(103,102,102)" stroke-width="0" opacity="1" d="M 1275.5 1553 L 1312.5 1553 L 1314 1554.5 L 1314 1592.5 L 1312.5 1594 L 1275.5 1594 L 1274 1592.5 L 1274 1554.5 L 1275.5 1553 Z M 1277 1556 L 1277 1591 L 1311 1591 L 1311 1556 L 1277 1556 Z " /><path fill="rgb(103,102,102)" stroke="rgb(103,102,102)" stroke-width="0" opacity="1" d="M 1321.5 1578 L 1324 1579.5 L 1323 1587 L 1326 1588.5 L 1323 1590 Q 1324.3 1594.1 1321 1593 Q 1322.8 1588.1 1316.5 1590 L 1315 1586.5 L 1321.5 1578 Z M 1320 1583 L 1318 1584 L 1318 1586 Q 1317 1589 1321 1587 L 1321 1583 L 1320 1583 Z " />
</g>
<g class="pyt-text">
<text class="pyt-word pyt-ltr" x="1283" y="203" font-size="20" text-anchor="start">16</text>
<text class="pyt-word pyt-ltr" x="1392" y="321" font-size="10" text-anchor="start">,</text>
<text class="pyt-word pyt-rtl" x="1375" y="315" font-size="19" text-anchor="end">בסרטוט</text>
<text class="pyt-word pyt-rtl" x="1263" y="314" font-size="22" text-anchor="end">שלפניכם</text>
<text class="pyt-word pyt-rtl" x="1143" y="314" font-size="18" text-anchor="end">שני</text>
<text class="pyt-word pyt-rtl" x="1093" y="314" font-size="22" text-anchor="end">משולשים.</text>
<text class="pyt-word pyt-rtl" x="1375" y="374" font-size="22" text-anchor="end">משולש</text>
<text class="pyt-word pyt-ltr" x="1148" y="375" font-size="19" text-anchor="start">Xin</text>
<text class="pyt-word pyt-ltr" x="1206" y="374" font-size="21" text-anchor="start">ABD‏</text>
<text class="pyt-word pyt-rtl" x="1138" y="374" font-size="22" text-anchor="end">שווה-צלעות</text>
<text class="pyt-word pyt-rtl" x="977" y="374" font-size="22" text-anchor="end">ומשולש</text>
<text class="pyt-word pyt-ltr" x="799" y="374" font-size="21" text-anchor="start">DBC‏</text>
<text class="pyt-word pyt-rtl" x="790" y="375" font-size="19" text-anchor="end">הוא</text>
<text class="pyt-word pyt-rtl" x="732" y="374" font-size="18" text-anchor="end">ישר-זווית</text>
<text class="pyt-word pyt-rtl" x="599" y="379" font-size="23" text-anchor="end">ושווה-שוקיים.</text>
<text class="pyt-word pyt-ltr" x="867" y="449" font-size="14" text-anchor="start">A‏</text>
<text class="pyt-word pyt-rtl" x="1376" y="1030" font-size="17" text-anchor="end">א.</text>
<text class="pyt-word pyt-rtl" x="1325" y="1032" font-size="19" text-anchor="end">מהו</text>
<text class="pyt-word pyt-rtl" x="1268" y="1031" font-size="22" text-anchor="end">גודל</text>
<text class="pyt-word pyt-rtl" x="1098" y="1031" font-size="15" text-anchor="end">י</text>
<text class="pyt-word pyt-rtl" x="1325" y="1140" font-size="18" text-anchor="end">תשובה:</text>
<text class="pyt-word pyt-ltr" x="1205" y="1128" font-size="11" text-anchor="start">?</text>
<text class="pyt-word pyt-ltr" x="1013" y="1136" font-size="10" text-anchor="start">=</text>
<text class="pyt-word pyt-ltr" x="899" y="1143" font-size="19" text-anchor="start">4</text>
<text class="pyt-word pyt-ltr" x="1351" y="1250" font-size="17" text-anchor="start">a‏</text>
<text class="pyt-word pyt-rtl" x="1325" y="1254" font-size="22" text-anchor="end">נתון</text>
<text class="pyt-word pyt-rtl" x="1265" y="1251" font-size="18" text-anchor="end">גם</text>
<text class="pyt-word pyt-rtl" x="1224" y="1250" font-size="17" text-anchor="end">ש-</text>
<text class="pyt-word pyt-ltr" x="1169" y="1251" font-size="21" text-anchor="start">5</text>
<text class="pyt-word pyt-rtl" x="1159" y="1250" font-size="17" text-anchor="end">סימ</text>
<text class="pyt-word pyt-ltr" x="1076" y="1246" font-size="10" text-anchor="start">=</text>
<text class="pyt-word pyt-rtl" x="1325" y="1305" font-size="18" text-anchor="end">מהו</text>
<text class="pyt-word pyt-rtl" x="1267" y="1310" font-size="23" text-anchor="end">היקף</text>
<text class="pyt-word pyt-rtl" x="1192" y="1306" font-size="19" text-anchor="end">המרובע</text>
<text class="pyt-word pyt-ltr" x="990" y="1305" font-size="21" text-anchor="start">ABCD‏</text>
<text class="pyt-word pyt-rtl" x="981" y="1305" font-size="18" text-anchor="end">בסיימו</text>
<text class="pyt-word pyt-ltr" x="1306" y="1473" font-size="36" text-anchor="start">[</text>
<text class="pyt-word pyt-ltr" x="1090" y="1583" font-size="32" text-anchor="start">20+450</text>
</g>
</svg>
