<?xml version="1.0" encoding="UTF-8"?>
<svg xmlns="http://www.w3.org/2000/svg" width="1489" height="2105" viewBox="0 0 1489 2105">
<style>
  .pyt-art path:not([fill="rgb(255,255,255)"]):not([fill="rgb(254,254,254)"]):not([fill="rgb(253,253,253)"]):not([fill="rgb(252,252,252)"]){ fill:#000; }
  .pyt-word{ fill:#000; font-family:'Rubik',sans-serif; font-weight:400; }
  .pyt-rtl{ direction:rtl; unicode-bidi:plaintext; }
  .pyt-ltr{ direction:ltr; unicode-bidi:plaintext; }
</style>
<rect width="100%" height="100%" fill="#fff"/>
<g class="pyt-art">
<path fill="rgb(76,142,110)" stroke="rgb(76,142,110)" stroke-width="0" opacity="1" d="M 1315.5 209 L 1320.5 210 L 1400 210 L 1399.5 212 L 1297 212 L 1297.5 210 L 1314.5 210 L 1315.5 209 Z " /><path fill="rgb(76,142,110)" stroke="rgb(76,142,110)" stroke-width="0" opacity="1" d="M 639.5 395 Q 643.9 393.5 643 396.5 L 697 464.5 L 699 469 Q 701.7 467.9 701 470.5 L 708 477.5 L 718 492 Q 720.7 490.9 720 493.5 L 722 497.5 L 721 500 L 716.5 502 L 643.5 560 L 240.5 560 L 237 559 L 238.5 555 L 639.5 395 Z M 637 400 L 252 554 L 251 556 L 614 556 L 614 556 L 614 531 Q 617 527 626 528 L 628 528 Q 632 527 634 529 L 640 528 L 641 527 L 641 459 L 640 458 L 640 401 L 637 400 Z M 645 405 L 644 515 L 645 516 L 645 551 L 647 552 L 696 514 L 681 494 L 681 490 L 700 476 L 647 406 L 645 405 Z M 702 479 L 686 492 L 687 496 L 697 509 L 700 510 L 716 498 L 716 496 L 707 484 L 702 479 Z M 620 532 L 618 534 L 618 555 L 620 556 L 631 556 L 632 555 L 636 556 L 639 555 L 641 555 L 641 533 L 639 532 L 620 532 Z " /><path fill="rgb(76,142,110)" stroke="rgb(76,142,110)" stroke-width="0" opacity="1" d="M 692.5 552 Q 699 551 701 554.5 L 702 559.5 L 700 562.5 Q 704.3 563.8 703 570.5 L 700.5 574 L 691.5 575 L 689 574 L 688 569 L 692 570.5 Q 691.3 572.8 693.5 572 L 695.5 573 L 699 570.5 Q 700 566 697.5 565 L 693 562.5 L 698 559.5 Q 698.8 555.8 696.5 555 Q 692.8 554.3 692 556.5 L 692 558 L 688 558 L 690.5 553 L 692.5 552 Z " /><path fill="rgb(76,142,110)" stroke="rgb(76,142,110)" stroke-width="0" opacity="1" d="M 632.5 569 L 648.5 569 L 650 570.5 Q 650.5 573.5 643.5 572 L 642 573.5 L 642 592 L 638 591.5 L 638 573.5 Q 636.4 570.5 631 572 L 632.5 569 Z " /><path fill="rgb(76,142,110)" stroke="rgb(76,142,110)" stroke-width="0" opacity="1" d="M 1173 1664 L 1399.5 1664 L 1400 1667 L 1173.5 1667 L 1173 1664 Z " />
</g>
<g class="pyt-text">
<text class="pyt-word pyt-ltr" x="1298" y="203" font-size="20" text-anchor="start">4</text>
<text class="pyt-word pyt-rtl" x="1379" y="351" font-size="23" text-anchor="end">הצלע</text>
<text class="pyt-word pyt-ltr" x="1245" y="350" font-size="23" text-anchor="start">UT‏</text>
<text class="pyt-word pyt-rtl" x="1221" y="351" font-size="17" text-anchor="end">משותפת</text>
<text class="pyt-word pyt-rtl" x="1094" y="350" font-size="23" text-anchor="end">לשני</text>
<text class="pyt-word pyt-rtl" x="1023" y="350" font-size="23" text-anchor="end">המשולשים</text>
<text class="pyt-word pyt-rtl" x="262" y="367" font-size="24" text-anchor="end">(המידות</text>
<text class="pyt-word pyt-rtl" x="164" y="367" font-size="23" text-anchor="end">בס&quot;מ.)</text>
<text class="pyt-word pyt-rtl" x="1379" y="403" font-size="17" text-anchor="end">הישרי-זווית</text>
<text class="pyt-word pyt-ltr" x="1118" y="402" font-size="23" text-anchor="start">AUST‏</text>
<text class="pyt-word pyt-rtl" x="1096" y="402" font-size="16" text-anchor="end">ו-</text>
<text class="pyt-word pyt-ltr" x="955" y="402" font-size="23" text-anchor="start">AMTU‏</text>
<text class="pyt-word pyt-ltr" x="633" y="383" font-size="21" text-anchor="start">5</text>
<text class="pyt-word pyt-rtl" x="1381" y="463" font-size="17" text-anchor="end">א.</text>
<text class="pyt-word pyt-rtl" x="1313" y="463" font-size="17" text-anchor="end">מצאואת</text>
<text class="pyt-word pyt-rtl" x="1187" y="468" font-size="23" text-anchor="end">אורך</text>
<text class="pyt-word pyt-ltr" x="1051" y="462" font-size="23" text-anchor="start">UT‏</text>
<text class="pyt-word pyt-ltr" x="697" y="446" font-size="21" text-anchor="start">4</text>
<text class="pyt-word pyt-ltr" x="443" y="452" font-size="14" text-anchor="start">2</text>
<text class="pyt-word pyt-rtl" x="1381" y="523" font-size="17" text-anchor="end">ב.</text>
<text class="pyt-word pyt-rtl" x="1313" y="523" font-size="17" text-anchor="end">מצאואת</text>
<text class="pyt-word pyt-rtl" x="1187" y="528" font-size="23" text-anchor="end">אורך</text>
<text class="pyt-word pyt-ltr" x="1043" y="522" font-size="23" text-anchor="start">MU‏</text>
<text class="pyt-word pyt-ltr" x="732" y="500" font-size="21" text-anchor="start">5</text>
<text class="pyt-word pyt-ltr" x="478" y="589" font-size="21" text-anchor="start">12</text>
<text class="pyt-word pyt-ltr" x="210" y="570" font-size="21" text-anchor="start">0</text>
<text class="pyt-word pyt-ltr" x="1174" y="1657" font-size="20" text-anchor="start">4</text>
<text class="pyt-word pyt-rtl" x="1399" y="1787" font-size="17" text-anchor="end">א.</text>
<text class="pyt-word pyt-ltr" x="1350" y="1787" font-size="20" text-anchor="start">5</text>
<text class="pyt-word pyt-rtl" x="1339" y="1787" font-size="18" text-anchor="end">סיימ</text>
<text class="pyt-word pyt-rtl" x="1400" y="1850" font-size="16" text-anchor="end">ב.</text>
<text class="pyt-word pyt-ltr" x="1338" y="1850" font-size="19" text-anchor="start">13</text>
<text class="pyt-word pyt-rtl" x="1327" y="1851" font-size="17" text-anchor="end">סיימ</text>
</g>
</svg>
