<?xml version="1.0" encoding="UTF-8"?>
<svg xmlns="http://www.w3.org/2000/svg" width="1489" height="2105" viewBox="0 0 1489 2105">
<style>
  .pyt-art path:not([fill="rgb(255,255,255)"]):not([fill="rgb(254,254,254)"]):not([fill="rgb(253,253,253)"]):not([fill="rgb(252,252,252)"]){ fill:#000; }
  .pyt-word{ fill:#000; font-family:'Rubik',sans-serif; font-weight:400; }
  .pyt-rtl{ direction:rtl; unicode-bidi:plaintext; }
  .pyt-ltr{ direction:ltr; unicode-bidi:plaintext; }
</style>
<rect width="100%" height="100%" fill="#fff"/>
<g class="pyt-art">
<path fill="rgb(152,149,151)" stroke="rgb(152,149,151)" stroke-width="0" opacity="1" d="M 1315.5 209 L 1320.5 210 L 1400 210 L 1399.5 212 L 1297 212 L 1297.5 210 L 1314.5 210 L 1315.5 209 Z " /><path fill="rgb(152,149,151)" stroke="rgb(152,149,151)" stroke-width="0" opacity="1" d="M 509.5 335 L 940.5 335 L 941 336.5 L 942 337.5 L 942 515.5 L 941 518 L 508.5 518 L 507 516.5 L 507 336.5 L 508.5 336 L 509.5 335 Z M 511 338 L 510 341 L 510 513 L 511 514 L 512 515 L 737 515 L 742 504 L 750 497 L 760 494 L 771 494 L 780 496 L 936 339 L 511 338 Z M 938 341 L 931 348 Q 932 350 929 349 L 929 351 L 927 351 L 927 353 L 918 361 Q 919 363 916 362 L 916 364 L 914 364 L 914 366 L 905 374 Q 906 376 903 375 L 903 377 L 899 380 Q 900 382 897 381 L 897 383 L 895 383 L 895 385 L 888 391 Q 889 393 886 392 L 886 394 L 884 394 L 884 396 L 882 396 L 882 398 L 875 404 Q 876 406 873 405 L 873 407 L 871 407 L 871 409 L 869 409 L 869 411 L 867 411 L 867 413 L 865 413 L 865 415 L 858 421 Q 859 423 856 422 L 856 424 L 854 424 L 854 426 L 852 426 L 852 428 L 845 434 Q 846 436 843 435 L 843 437 L 841 437 L 841 439 L 839 439 L 839 441 L 837 441 L 837 443 L 835 443 L 835 445 L 833 445 L 833 447 L 828 451 Q 829 453 826 452 L 826 454 L 824 454 L 824 456 L 822 456 L 822 458 L 820 458 L 820 460 L 815 464 Q 816 466 813 465 L 813 467 L 811 467 L 811 469 L 809 469 L 809 471 L 807 471 L 807 473 L 805 473 L 805 475 L 803 475 L 803 477 L 796 483 Q 797 485 794 484 L 794 486 L 792 486 L 792 488 L 790 488 L 790 490 L 785 494 L 781 499 L 777 502 Q 778 504 775 503 L 775 505 L 773 505 L 773 507 L 766 513 L 767 515 L 938 515 L 938 341 Z M 761 497 L 749 501 Q 742 504 741 513 L 743 515 L 760 515 L 762 514 L 775 501 L 775 498 L 761 497 Z " /><path fill="rgb(152,149,151)" stroke="rgb(152,149,151)" stroke-width="0" opacity="1" d="M 1239 437 L 1250.5 437 L 1254 440.5 L 1253 447.5 L 1256 452.5 L 1251.5 458 L 1239.5 458 L 1239 455.5 L 1240 454.5 L 1240 439.5 L 1239 437 Z M 1245 439 L 1244 444 Q 1245 446 1249 445 L 1250 443 L 1245 439 Z M 1244 449 L 1244 454 Q 1245 456 1249 455 L 1251 452 Q 1250 448 1244 449 Z " /><path fill="rgb(152,149,151)" stroke="rgb(152,149,151)" stroke-width="0" opacity="1" d="M 1259.5 437 L 1272.5 437 L 1273 441 L 1265.5 439 Q 1262.5 439.5 1263 443.5 Q 1264 446 1268.5 445 L 1270.5 445 L 1272 445 L 1272 449 L 1263 449 L 1263 453.5 Q 1264.3 456.3 1269.5 455 L 1274 453 Q 1275 456.8 1272.5 458 L 1258.5 458 L 1258 455.5 L 1259 454.5 L 1259 439.5 Q 1256.8 438.3 1259.5 437 Z " /><path fill="rgb(152,149,151)" stroke="rgb(152,149,151)" stroke-width="0" opacity="1" d="M 1283 445 Q 1287.9 443.4 1286 449 L 1283 447.5 L 1283 445 Z " /><path fill="rgb(152,149,151)" stroke="rgb(152,149,151)" stroke-width="0" opacity="1" d="M 1284.5 450 L 1286 450 L 1286 455 L 1283 453.5 L 1284.5 450 Z " /><path fill="rgb(152,149,151)" stroke="rgb(152,149,151)" stroke-width="0" opacity="1" d="M 1213.5 452 L 1214 453.5 L 1213 453.5 L 1213.5 452 Z " /><path fill="rgb(152,149,151)" stroke="rgb(152,149,151)" stroke-width="0" opacity="1" d="M 937.5 527 Q 946 525 948 529.5 L 947 533.5 L 949 538.5 L 948 541 Q 944.6 543.1 937 542 L 937 529.5 L 936 528.5 L 937.5 527 Z M 943 529 L 941 533 L 944 532 L 943 529 Z M 941 536 L 941 539 L 945 538 L 941 536 Z " /><path fill="rgb(152,149,151)" stroke="rgb(152,149,151)" stroke-width="0" opacity="1" d="M 1211.5 911 L 1213 913.5 L 1200.5 945 L 1197 939.5 L 1198 937 L 1193 933.5 L 1196.5 931 L 1199 938 Q 1202 939.3 1201 935.5 L 1208 915.5 L 1211.5 911 Z " /><path fill="rgb(152,149,151)" stroke="rgb(152,149,151)" stroke-width="0" opacity="1" d="M 1235.5 918 Q 1241.3 917.2 1243 920.5 Q 1246.1 924.9 1245 933.5 L 1240.5 940 Q 1232.8 941.8 1231 937.5 L 1229 932.5 L 1229 926.5 L 1233.5 919 L 1235.5 918 Z M 1237 920 L 1234 924 Q 1233 933 1235 938 L 1238 939 L 1240 937 L 1240 923 L 1237 920 Z " /><path fill="rgb(152,149,151)" stroke="rgb(152,149,151)" stroke-width="0" opacity="1" d="M 1219.5 919 Q 1223.3 918.3 1224 920.5 L 1224 939.5 L 1222.5 940 L 1220.5 940 Q 1217.2 941.1 1218 938.5 L 1219 937.5 L 1219 921.5 Q 1216.8 920.3 1219.5 919 Z " /><path fill="rgb(152,149,151)" stroke="rgb(152,149,151)" stroke-width="0" opacity="1" d="M 1211.5 962 L 1213.5 963 L 1246 963.5 L 1213 964 L 1200.5 997 Q 1198.3 997.8 1199 995.5 L 1197 991.5 L 1198 989 L 1195 987.5 Q 1193.5 983.1 1196.5 984 L 1199 990 Q 1202 991.3 1201 987.5 L 1208 970.5 L 1208 967.5 L 1211.5 962 Z " /><path fill="rgb(152,149,151)" stroke="rgb(152,149,151)" stroke-width="0" opacity="1" d="M 1218.5 970 Q 1225.8 968.8 1227 973.5 L 1228 978.5 L 1224 985 L 1220 987.5 Q 1221 990 1225.5 989 Q 1226.7 986.8 1228 989.5 L 1226.5 993 L 1215.5 993 L 1214 991.5 L 1216.5 988 Q 1218.8 988.8 1218 986.5 Q 1223.2 984.2 1223 976.5 Q 1222.5 973.5 1218.5 974 L 1215 976 Q 1214.3 971.3 1218.5 970 Z " /><path fill="rgb(152,149,151)" stroke="rgb(152,149,151)" stroke-width="0" opacity="1" d="M 1235.5 970 Q 1241.7 969.3 1243 973.5 Q 1246.5 977.5 1245 986.5 L 1240.5 993 L 1233.5 993 L 1233 991.5 Q 1227.9 988.1 1229 978.5 L 1233.5 971 L 1235.5 970 Z M 1238 972 L 1234 977 L 1234 988 L 1237 991 L 1240 989 L 1240 975 L 1238 972 Z " /><path fill="rgb(152,149,151)" stroke="rgb(152,149,151)" stroke-width="0" opacity="1" d="M 1211.5 1015 L 1246 1015.5 L 1213 1016 L 1209 1026.5 L 1209 1029.5 L 1200.5 1049 Q 1198.3 1049.8 1199 1047.5 L 1197 1043.5 L 1197.5 1042 L 1195 1040.5 Q 1193.1 1035.1 1196.5 1036 L 1199.5 1043 L 1203 1036.5 L 1208 1020.5 L 1211.5 1015 Z " /><path fill="rgb(152,149,151)" stroke="rgb(152,149,151)" stroke-width="0" opacity="1" d="M 1295.5 1015 L 1324.5 1015 L 1327 1017.5 L 1327 1046.5 L 1325.5 1047 L 1324.5 1048 L 1294.5 1048 L 1293 1046.5 L 1293 1017.5 L 1295.5 1015 Z M 1297 1019 L 1297 1045 L 1323 1045 L 1323 1019 L 1297 1019 Z " /><path fill="rgb(152,149,151)" stroke="rgb(152,149,151)" stroke-width="0" opacity="1" d="M 1223.5 1023 L 1226 1024.5 L 1226 1035.5 L 1227.5 1036 L 1229 1036.5 L 1229 1030.5 L 1234.5 1023 Q 1241 1022 1243 1025.5 Q 1246.5 1029.5 1245 1038.5 L 1240.5 1045 Q 1232.8 1046.7 1231 1042.5 L 1229.5 1039 L 1226 1040 Q 1227 1043.8 1224.5 1045 Q 1220.3 1046.3 1222 1041.5 L 1220.5 1040 Q 1214.5 1041.5 1213 1038.5 L 1223.5 1023 Z M 1237 1025 L 1234 1029 Q 1232 1040 1238 1044 L 1240 1041 L 1240 1028 L 1237 1025 Z M 1221 1030 L 1220 1032 Q 1215 1034 1219 1036 L 1222 1035 Q 1223 1031 1221 1030 Z " /><path fill="rgb(152,149,151)" stroke="rgb(152,149,151)" stroke-width="0" opacity="1" d="M 1331.5 1031 L 1335 1033.5 L 1334 1036.5 Q 1336.8 1038.2 1336 1043.5 L 1333.5 1047 L 1328 1047 L 1328 1044.5 Q 1329.2 1042 1333 1043 L 1331.5 1040 L 1329 1038.5 L 1331 1035.5 L 1329 1032 L 1331.5 1031 Z " /><path fill="rgb(152,149,151)" stroke="rgb(152,149,151)" stroke-width="0" opacity="1" d="M 1212.5 1066 L 1246.5 1066 L 1247 1069 L 1213.5 1069 L 1213 1070.5 L 1211 1072.5 L 1207 1087.5 L 1205 1089.5 L 1205 1092.5 L 1203 1094.5 L 1200.5 1102 L 1197 1097.5 L 1195 1089.5 Q 1196.5 1086.5 1198 1089.5 L 1199.5 1095 L 1203 1088.5 L 1208 1072.5 L 1212.5 1066 Z " /><path fill="rgb(152,149,151)" stroke="rgb(152,149,151)" stroke-width="0" opacity="1" d="M 1219.5 1075 L 1227 1075 L 1227 1079 L 1221.5 1079 L 1221 1080.5 L 1227 1085.5 L 1228 1091.5 L 1222.5 1098 Q 1215.8 1099.7 1214 1096.5 Q 1212.7 1091.9 1218.5 1094 L 1221.5 1095 Q 1224.8 1094.3 1224 1089.5 L 1223 1087 L 1215 1083.5 Q 1215.6 1077.6 1219.5 1075 Z " /><path fill="rgb(152,149,151)" stroke="rgb(152,149,151)" stroke-width="0" opacity="1" d="M 1234.5 1075 L 1239.5 1075 L 1243 1077 Q 1246 1081.3 1245 1090.5 L 1243 1096 L 1239.5 1098 L 1234.5 1098 Q 1228.3 1094.3 1229 1083.5 Q 1230.3 1077.8 1234.5 1075 Z M 1237 1077 L 1234 1082 L 1234 1093 L 1235 1095 L 1238 1096 L 1240 1094 L 1240 1080 L 1237 1077 Z " />
</g>
<g class="pyt-text">
<text class="pyt-word pyt-ltr" x="1299" y="203" font-size="20" text-anchor="start">8</text>
<text class="pyt-word pyt-rtl" x="1385" y="289" font-size="18" text-anchor="end">לפניכם</text>
<text class="pyt-word pyt-rtl" x="1306" y="292" font-size="21" text-anchor="end">מלבן</text>
<text class="pyt-word pyt-ltr" x="1166" y="289" font-size="20" text-anchor="start">ABCD‏</text>
<text class="pyt-word pyt-ltr" x="1154" y="292" font-size="10" text-anchor="start">.</text>
<text class="pyt-word pyt-ltr" x="935" y="328" font-size="14" text-anchor="start">A‏</text>
<text class="pyt-word pyt-ltr" x="737" y="320" font-size="14" text-anchor="start">12</text>
<text class="pyt-word pyt-rtl" x="727" y="320" font-size="14" text-anchor="end">ס&quot;מ</text>
<text class="pyt-word pyt-ltr" x="493" y="328" font-size="14" text-anchor="start">D‏</text>
<text class="pyt-word pyt-ltr" x="1367" y="340" font-size="19" text-anchor="start">8</text>
<text class="pyt-word pyt-rtl" x="1359" y="341" font-size="14" text-anchor="end">היא</text>
<text class="pyt-word pyt-rtl" x="1310" y="343" font-size="17" text-anchor="end">נקודה</text>
<text class="pyt-word pyt-rtl" x="1241" y="341" font-size="18" text-anchor="end">על</text>
<text class="pyt-word pyt-rtl" x="1207" y="341" font-size="19" text-anchor="end">הצלע</text>
<text class="pyt-word pyt-ltr" x="1107" y="340" font-size="20" text-anchor="start">:)8</text>
<text class="pyt-word pyt-ltr" x="1093" y="343" font-size="10" text-anchor="start">.</text>
<text class="pyt-word pyt-rtl" x="1376" y="454" font-size="19" text-anchor="end">5ס&quot;מ</text>
<text class="pyt-word pyt-ltr" x="1288" y="453" font-size="10" text-anchor="start">=</text>
<text class="pyt-word pyt-ltr" x="1216" y="453" font-size="10" text-anchor="start">=</text>
<text class="pyt-word pyt-rtl" x="1204" y="454" font-size="19" text-anchor="end">מא</text>
<text class="pyt-word pyt-ltr" x="954" y="435" font-size="14" text-anchor="start">-</text>
<text class="pyt-word pyt-ltr" x="1359" y="506" font-size="21" text-anchor="start">12</text>
<text class="pyt-word pyt-rtl" x="1347" y="507" font-size="16" text-anchor="end">ס&quot;מ</text>
<text class="pyt-word pyt-ltr" x="1279" y="505" font-size="10" text-anchor="start">=</text>
<text class="pyt-word pyt-rtl" x="1272" y="507" font-size="20" text-anchor="end">סה</text>
<text class="pyt-word pyt-ltr" x="756" y="539" font-size="14" text-anchor="start">E</text>
<text class="pyt-word pyt-ltr" x="826" y="546" font-size="14" text-anchor="start">pps</text>
<text class="pyt-word pyt-ltr" x="494" y="540" font-size="14" text-anchor="start">6</text>
<text class="pyt-word pyt-rtl" x="1384" y="611" font-size="14" text-anchor="end">א.</text>
<text class="pyt-word pyt-rtl" x="1343" y="611" font-size="14" text-anchor="end">מהו</text>
<text class="pyt-word pyt-rtl" x="1295" y="610" font-size="18" text-anchor="end">גודל</text>
<text class="pyt-word pyt-ltr" x="1163" y="609" font-size="21" text-anchor="start">&lt;AEC‏</text>
<text class="pyt-word pyt-ltr" x="1146" y="611" font-size="14" text-anchor="start">1</text>
<text class="pyt-word pyt-ltr" x="968" y="727" font-size="21" text-anchor="start">&lt;AEC</text>
<text class="pyt-word pyt-ltr" x="1057" y="726" font-size="10" text-anchor="start">=</text>
<text class="pyt-word pyt-ltr" x="1248" y="718" font-size="10" text-anchor="start">°</text>
<text class="pyt-word pyt-ltr" x="1268" y="728" font-size="14" text-anchor="start">awn‏</text>
<text class="pyt-word pyt-rtl" x="1385" y="833" font-size="14" text-anchor="end">ב.</text>
<text class="pyt-word pyt-rtl" x="1343" y="833" font-size="14" text-anchor="end">מהו</text>
<text class="pyt-word pyt-rtl" x="1295" y="836" font-size="18" text-anchor="end">אורך</text>
<text class="pyt-word pyt-rtl" x="1237" y="836" font-size="18" text-anchor="end">הקטע</text>
<text class="pyt-word pyt-ltr" x="1130" y="832" font-size="19" text-anchor="start">AE‏</text>
<text class="pyt-word pyt-rtl" x="1122" y="832" font-size="16" text-anchor="end">בס&quot;מו</text>
<text class="pyt-word pyt-ltr" x="1293" y="937" font-size="30" text-anchor="start">[Ch‏</text>
<text class="pyt-word pyt-ltr" x="1293" y="989" font-size="30" text-anchor="start">[Ch‏</text>
<text class="pyt-word pyt-ltr" x="1293" y="1093" font-size="30" text-anchor="start">[Ck‏</text>
</g>
</svg>
