<?xml version="1.0" encoding="UTF-8"?>
<svg xmlns="http://www.w3.org/2000/svg" width="1489" height="2105" viewBox="0 0 1489 2105">
<style>
  .pyt-art path:not([fill="rgb(255,255,255)"]):not([fill="rgb(254,254,254)"]):not([fill="rgb(253,253,253)"]):not([fill="rgb(252,252,252)"]){ fill:#000; }
  .pyt-word{ fill:#000; font-family:'Rubik',sans-serif; font-weight:400; }
  .pyt-rtl{ direction:rtl; unicode-bidi:plaintext; }
  .pyt-ltr{ direction:ltr; unicode-bidi:plaintext; }
</style>
<rect width="100%" height="100%" fill="#fff"/>
<g class="pyt-art">
<path fill="rgb(95,94,94)" stroke="rgb(95,94,94)" stroke-width="0" opacity="1" d="M 1282.5 209 L 1400 210 L 1399.5 212 L 1281 212 L 1282.5 209 Z " /><path fill="rgb(95,94,94)" stroke="rgb(95,94,94)" stroke-width="0" opacity="1" d="M 962 384 Q 966.7 383 968 386.5 L 965 392.5 L 966 394.5 L 963 396 L 964 388.5 L 961 386.5 L 962 384 Z " /><path fill="rgb(95,94,94)" stroke="rgb(95,94,94)" stroke-width="0" opacity="1" d="M 964.5 398 L 966 400.5 L 963.5 402 Q 960 400 964.5 398 Z " /><path fill="rgb(95,94,94)" stroke="rgb(95,94,94)" stroke-width="0" opacity="1" d="M 336 457 L 353.5 463 L 367.5 470 L 377.5 473 L 478.5 516 L 645 584 L 618 651.5 L 614 658.5 L 611 668.5 L 595 704.5 L 594 709.5 L 578 745.5 L 575 755.5 L 522 880.5 L 518 893 L 209 893 L 209 763.5 L 336 457 Z M 339 460 L 331 476 L 309 532 L 305 539 L 299 556 L 212 764 L 516 890 L 611 662 L 614 652 L 618 645 L 641 587 L 636 583 L 631 582 L 339 460 Z M 212 767 L 212 874 L 214 875 L 226 875 L 227 874 L 228 876 L 228 890 L 508 890 L 212 767 Z M 212 876 L 212 890 L 227 890 L 227 876 L 212 876 Z " /><path fill="rgb(95,94,94)" stroke="rgb(95,94,94)" stroke-width="0" opacity="1" d="M 1283.5 471 L 1294.5 481 Q 1297.3 478.2 1296 472 Q 1300 470.6 1298 477.5 L 1295 481.5 Q 1298.6 483.4 1299 488.5 L 1294 484.5 L 1287.5 477 Q 1283.8 479.5 1285 486 Q 1287.7 484.9 1287 487.5 L 1283 489 Q 1281.8 480.7 1286 476.5 Q 1281.7 475.3 1283.5 471 Z " /><path fill="rgb(95,94,94)" stroke="rgb(95,94,94)" stroke-width="0" opacity="1" d="M 1236.5 518 L 1258.5 518 L 1259 521 L 1236.5 521 L 1233 524.5 L 1233 557.5 L 1235.5 560 L 1237.5 561 L 1259 561 L 1258.5 563 L 1235.5 563 L 1231 559.5 L 1230 557.5 L 1230 524.5 L 1234.5 519 L 1236.5 518 Z " /><path fill="rgb(95,94,94)" stroke="rgb(95,94,94)" stroke-width="0" opacity="1" d="M 1183.5 530 L 1184.5 531 L 1191 531 L 1189.5 534 Q 1181.7 531.6 1184 538 Q 1189 537.2 1191 540.5 L 1192 543.5 L 1188.5 550 L 1183.5 552 L 1180 551 L 1181.5 548 Q 1187.8 549.3 1189 545.5 Q 1189.5 541.5 1186.5 541 L 1181 541 L 1181 532.5 L 1183.5 530 Z " /><path fill="rgb(95,94,94)" stroke="rgb(95,94,94)" stroke-width="0" opacity="1" d="M 1198.5 530 Q 1204.7 529.3 1206 533.5 L 1206 537.5 L 1200 544.5 L 1199 548 L 1207 548.5 L 1206 551 L 1195.5 551 L 1195 549.5 L 1202 539.5 L 1202 534 L 1196.5 534 L 1196 532.5 L 1198.5 530 Z " /><path fill="rgb(95,94,94)" stroke="rgb(95,94,94)" stroke-width="0" opacity="1" d="M 1287 541 Q 1295 539.3 1298 543.5 L 1298 554.5 L 1299.5 555 L 1299 556.5 L 1298.5 558 L 1286 558 L 1287.5 555 L 1296 555 L 1296 546.5 L 1295 544 L 1286 543.5 L 1287 541 Z " /><path fill="rgb(95,94,94)" stroke="rgb(95,94,94)" stroke-width="0" opacity="1" d="M 1240.5 588 L 1264.5 588 L 1265 591 L 1240.5 591 L 1238 593.5 L 1238 626.5 L 1239 629 L 1241.5 630 L 1265 630 L 1264.5 633 L 1240.5 633 L 1236 629.5 L 1235 627.5 L 1235 593.5 L 1238.5 589 L 1240.5 588 Z " /><path fill="rgb(95,94,94)" stroke="rgb(95,94,94)" stroke-width="0" opacity="1" d="M 1170.5 599 L 1172 600.5 L 1172 617 Q 1175.8 615.5 1175 618.5 L 1173.5 620 L 1164.5 620 L 1165 618.5 L 1165 617 L 1168 616.5 L 1168 604.5 L 1165 602.5 L 1170.5 599 Z " /><path fill="rgb(95,94,94)" stroke="rgb(95,94,94)" stroke-width="0" opacity="1" d="M 1189.5 599 L 1190 600.5 L 1185 607.5 Q 1190.5 607 1192 610.5 L 1193 612.5 L 1188.5 620 L 1185.5 621 L 1180 617.5 L 1179 613.5 L 1186.5 600 L 1189.5 599 Z M 1185 608 L 1185 609 L 1185 608 Z M 1184 611 L 1182 613 L 1183 616 L 1186 617 Q 1191 619 1189 613 Q 1188 610 1184 611 Z " /><path fill="rgb(95,94,94)" stroke="rgb(95,94,94)" stroke-width="0" opacity="1" d="M 1200.5 599 L 1207 601 L 1208 607.5 L 1200.5 620 L 1197.5 621 L 1197 619.5 L 1202 612 Q 1196.5 613.3 1195 609.5 L 1195 604.5 L 1198.5 600 L 1200.5 599 Z M 1198 603 L 1199 608 Q 1198 611 1204 609 L 1205 606 Q 1204 602 1198 603 Z M 1203 611 L 1203 612 L 1203 611 Z " /><path fill="rgb(95,94,94)" stroke="rgb(95,94,94)" stroke-width="0" opacity="1" d="M 1138.5 601 L 1139 603 L 1151.5 603 L 1153 604.5 L 1154 608.5 Q 1152.8 616.8 1146.5 620 L 1142.5 621 L 1139 618.5 L 1135 604.5 L 1138.5 601 Z M 1140 606 L 1142 617 L 1148 616 Q 1151 614 1150 608 L 1149 606 L 1140 606 Z " /><path fill="rgb(95,94,94)" stroke="rgb(95,94,94)" stroke-width="0" opacity="1" d="M 1084.5 602 L 1095 604 L 1096 606.5 L 1096 619.5 Q 1094.5 622.5 1093 619.5 L 1093 608.5 L 1090.5 606 L 1082 605.5 L 1084.5 602 Z " /><path fill="rgb(95,94,94)" stroke="rgb(95,94,94)" stroke-width="0" opacity="1" d="M 1102 602 Q 1105.5 600.9 1104 608.5 L 1100.5 613 L 1100 611.5 L 1102 602 Z " /><path fill="rgb(95,94,94)" stroke="rgb(95,94,94)" stroke-width="0" opacity="1" d="M 1110.5 602 L 1112 606.5 L 1109 613 L 1107 612.5 L 1109 606.5 L 1108 604.5 L 1110.5 602 Z " /><path fill="rgb(95,94,94)" stroke="rgb(95,94,94)" stroke-width="0" opacity="1" d="M 1116 602 L 1119 603.5 L 1120.5 607 L 1123.5 603 L 1126.5 602 L 1132 606.5 L 1133 613.5 L 1131 620 L 1120 619.5 L 1122.5 617 L 1130 617 Q 1131.5 608.8 1126.5 606 Q 1122.8 605.3 1122 607.5 L 1119 613.5 L 1119 616.5 L 1115.5 621 L 1115 618.5 Q 1117.9 614.9 1117 607.5 L 1115 604.5 L 1116 602 Z " /><path fill="rgb(95,94,94)" stroke="rgb(95,94,94)" stroke-width="0" opacity="1" d="M 1293.5 610 L 1297 612 L 1299 617.5 L 1300 627.5 L 1299 627.5 L 1297.5 623 L 1293.5 628 L 1291 627.5 L 1292 625 L 1297 622.5 Q 1298 616 1294.5 614 L 1291 612.5 L 1293.5 610 Z " /><path fill="rgb(95,94,94)" stroke="rgb(95,94,94)" stroke-width="0" opacity="1" d="M 1237.5 657 L 1259.5 657 L 1260 660 L 1237.5 660 L 1233 663.5 L 1233 696.5 L 1235.5 699 L 1237.5 700 L 1260 700 L 1259.5 703 L 1237.5 703 L 1231 698.5 L 1230 696.5 L 1230 663.5 L 1234.5 658 L 1237.5 657 Z " /><path fill="rgb(95,94,94)" stroke="rgb(95,94,94)" stroke-width="0" opacity="1" d="M 1288.5 680 Q 1290 682.5 1295.5 681 L 1297.5 681 L 1300 681.5 L 1299 684 L 1297 684.5 L 1297 695.5 L 1295.5 698 L 1295 684 L 1286 683.5 L 1288.5 680 Z " />
</g>
<g class="pyt-text">
<text class="pyt-word pyt-ltr" x="1283" y="202" font-size="20" text-anchor="start">15</text>
<text class="pyt-word pyt-rtl" x="1377" y="331" font-size="22" text-anchor="end">לפניכם</text>
<text class="pyt-word pyt-rtl" x="1279" y="331" font-size="22" text-anchor="end">משולש</text>
<text class="pyt-word pyt-rtl" x="1182" y="332" font-size="18" text-anchor="end">ישר-זווית</text>
<text class="pyt-word pyt-ltr" x="979" y="331" font-size="23" text-anchor="start">ABC‏</text>
<text class="pyt-word pyt-rtl" x="970" y="333" font-size="19" text-anchor="end">וריבוע</text>
<text class="pyt-word pyt-ltr" x="788" y="330" font-size="22" text-anchor="start">ABDE‏</text>
<text class="pyt-word pyt-ltr" x="774" y="334" font-size="10" text-anchor="start">.</text>
<text class="pyt-word pyt-ltr" x="1179" y="399" font-size="18" text-anchor="start">now</text>
<text class="pyt-word pyt-ltr" x="1252" y="399" font-size="17" text-anchor="start">nn‏</text>
<text class="pyt-word pyt-rtl" x="1168" y="400" font-size="19" text-anchor="end">הריבוע</text>
<text class="pyt-word pyt-ltr" x="978" y="397" font-size="22" text-anchor="start">ABDE‏</text>
<text class="pyt-word pyt-ltr" x="324" y="443" font-size="19" text-anchor="start">D‏</text>
<text class="pyt-word pyt-ltr" x="1180" y="485" font-size="41" text-anchor="start">]34</text>
<text class="pyt-word pyt-rtl" x="1169" y="478" font-size="17" text-anchor="end">סמייר</text>
<text class="pyt-word pyt-ltr" x="1261" y="554" font-size="41" text-anchor="start">[‏</text>
<text class="pyt-word pyt-rtl" x="1169" y="548" font-size="17" text-anchor="end">סמייר</text>
<text class="pyt-word pyt-ltr" x="657" y="589" font-size="19" text-anchor="start">E‏</text>
<text class="pyt-word pyt-ltr" x="1267" y="624" font-size="41" text-anchor="start">[‏</text>
<text class="pyt-word pyt-ltr" x="1262" y="694" font-size="41" text-anchor="start">[</text>
<text class="pyt-word pyt-ltr" x="1164" y="686" font-size="19" text-anchor="start">289</text>
<text class="pyt-word pyt-rtl" x="1153" y="687" font-size="17" text-anchor="end">סמייר</text>
<text class="pyt-word pyt-ltr" x="185" y="771" font-size="18" text-anchor="start">8</text>
<text class="pyt-word pyt-ltr" x="188" y="839" font-size="20" text-anchor="start">5</text>
<text class="pyt-word pyt-rtl" x="175" y="838" font-size="16" text-anchor="end">ס&quot;מ</text>
<text class="pyt-word pyt-ltr" x="520" y="912" font-size="19" text-anchor="start">A‏</text>
<text class="pyt-word pyt-ltr" x="364" y="920" font-size="19" text-anchor="start">2</text>
<text class="pyt-word pyt-rtl" x="350" y="920" font-size="16" text-anchor="end">ס&quot;מ</text>
<text class="pyt-word pyt-ltr" x="182" y="912" font-size="21" text-anchor="start">6</text>
</g>
</svg>
