<?xml version="1.0" encoding="UTF-8"?>
<svg xmlns="http://www.w3.org/2000/svg" width="1489" height="2105" viewBox="0 0 1489 2105">
<style>
  .pyt-art path:not([fill="rgb(255,255,255)"]):not([fill="rgb(254,254,254)"]):not([fill="rgb(253,253,253)"]):not([fill="rgb(252,252,252)"]){ fill:#000; }
  .pyt-word{ fill:#000; font-family:'Rubik',sans-serif; font-weight:400; }
  .pyt-rtl{ direction:rtl; unicode-bidi:plaintext; }
  .pyt-ltr{ direction:ltr; unicode-bidi:plaintext; }
</style>
<rect width="100%" height="100%" fill="#fff"/>
<g class="pyt-art">
<path fill="rgb(125,122,123)" stroke="rgb(125,122,123)" stroke-width="0" opacity="1" d="M 1315.5 209 L 1320.5 210 L 1400 210 L 1399.5 212 L 1281 212 L 1281.5 210 L 1314.5 210 L 1315.5 209 Z " /><path fill="rgb(125,122,123)" stroke="rgb(125,122,123)" stroke-width="0" opacity="1" d="M 816.5 312 L 851.5 312 L 852 315 L 817.5 315 Q 816.5 315 817 319.5 Q 814 321.5 815 327.5 L 813 329.5 L 813 334.5 L 811 337.5 L 809 350.5 L 806.5 353 L 803 350.5 L 796.5 341 L 793 339.5 Q 794.5 335.8 800 337 L 805.5 346 Q 808.9 346.9 807 341.5 L 809 337.5 L 812 321.5 L 814 318.5 L 814 313 L 816.5 312 Z " /><path fill="rgb(125,122,123)" stroke="rgb(125,122,123)" stroke-width="0" opacity="1" d="M 840.5 322 L 843.5 322 L 847 324 L 848 329.5 L 846 332.5 Q 850.5 335 849 343.5 L 846.5 347 Q 843.6 350.6 835.5 349 L 834 346.5 L 836.5 345 Q 838 347.5 843.5 346 Q 846.8 345.3 846 340.5 Q 843.9 336.9 839 337 L 841.5 333 Q 843.8 333.8 843 331.5 L 844 327 L 838.5 326 L 835 328 L 836 324 L 840.5 322 Z " /><path fill="rgb(125,122,123)" stroke="rgb(125,122,123)" stroke-width="0" opacity="1" d="M 823.5 323 L 826 324 L 826 346.5 L 827 347.5 Q 826 350 821.5 349 Q 818.8 347.8 821 346.5 L 822 344.5 L 822 329.5 L 820 325.5 L 823.5 323 Z " /><path fill="rgb(125,122,123)" stroke="rgb(125,122,123)" stroke-width="0" opacity="1" d="M 1329.5 331 L 1333 333 L 1335 338.5 L 1334 339.5 L 1334 348.5 L 1331.5 351 Q 1327 352 1326 349.5 L 1327.5 347 L 1332 346 L 1332 339.5 L 1327 333.5 L 1329.5 331 Z " /><path fill="rgb(125,122,123)" stroke="rgb(125,122,123)" stroke-width="0" opacity="1" d="M 1348.5 331 L 1353 334.5 L 1355 340.5 L 1355 345.5 L 1353 350 Q 1350.6 351.7 1344.5 351 L 1342 350 L 1344.5 346 L 1352 346 L 1352 342.5 L 1351 338.5 L 1348.5 336 L 1344 337 L 1338.5 350 Q 1335.9 350.8 1337 347.5 Q 1339.6 344.6 1339 338.5 L 1337 333.5 L 1339.5 332 L 1342.5 336 L 1344.5 333 L 1348.5 331 Z " /><path fill="rgb(125,122,123)" stroke="rgb(125,122,123)" stroke-width="0" opacity="1" d="M 1359.5 331 L 1360.5 332 L 1371.5 332 L 1374 333 Q 1375.6 335.1 1375 340.5 L 1374 344.5 L 1368.5 350 L 1362.5 351 L 1360 348.5 L 1360 344.5 L 1356 335.5 L 1359.5 331 Z M 1362 336 L 1363 346 L 1365 347 L 1369 346 Q 1372 344 1372 339 L 1370 336 L 1362 336 Z " /><path fill="rgb(125,122,123)" stroke="rgb(125,122,123)" stroke-width="0" opacity="1" d="M 1316.5 332 Q 1321.3 332.3 1323 335.5 L 1323 349.5 L 1320 350 L 1320 339.5 L 1319 337 L 1315 334.5 L 1316.5 332 Z " /><path fill="rgb(125,122,123)" stroke="rgb(125,122,123)" stroke-width="0" opacity="1" d="M 1363.5 352 L 1370 353 L 1370 356 L 1362 356 L 1363.5 352 Z " /><path fill="rgb(125,122,123)" stroke="rgb(125,122,123)" stroke-width="0" opacity="1" d="M 1057.5 391 L 1060 392.5 L 1061 394.5 L 1060 395.5 L 1060 733 L 916.5 733 Q 915.5 733 916 728.5 L 936 679.5 L 938 677.5 L 938 674.5 L 940 672.5 L 940 669.5 L 942 667.5 L 951 643.5 L 953 641.5 L 953 638.5 L 955 636.5 L 955 633.5 L 957 631.5 L 968 602.5 L 970 600.5 L 970 597.5 L 972 595.5 L 981 571.5 L 983 569.5 L 985 561.5 L 987 559.5 L 996 535.5 L 998 533.5 L 998 530.5 L 1000 528.5 L 1000 525.5 L 1002 523.5 L 1013 494.5 L 1015 492.5 L 1015 489.5 L 1017 487.5 L 1024 467.5 L 1026 465.5 L 1028 458.5 L 1030 456.5 L 1030 453.5 L 1032 451.5 L 1032 448.5 L 1034 446.5 L 1043 422.5 L 1045 420.5 L 1045 417.5 L 1047 415.5 L 1047 412.5 L 1054 398.5 L 1054 395.5 L 1057.5 391 Z M 1056 405 L 1040 444 L 1038 446 L 1038 449 L 1036 451 L 1031 466 L 1029 468 L 1029 471 L 1023 482 L 1023 485 L 1021 487 L 1016 502 L 1014 504 L 1014 507 L 1010 513 L 1010 516 L 1008 518 L 1008 521 L 1006 523 L 999 543 L 993 554 L 991 562 L 984 576 L 984 579 L 982 581 L 982 584 L 978 590 L 976 598 L 969 612 L 969 615 L 967 617 L 967 620 L 961 631 L 961 634 L 959 636 L 954 651 L 952 653 L 952 656 L 946 667 L 944 675 L 937 689 L 937 692 L 935 694 L 935 697 L 931 703 L 931 706 L 929 708 L 924 723 L 922 725 L 922 729 L 1037 729 L 1038 728 L 1038 710 L 1056 710 L 1056 405 Z M 1040 713 L 1040 728 L 1042 729 L 1056 729 L 1056 713 L 1040 713 Z " /><path fill="rgb(125,122,123)" stroke="rgb(125,122,123)" stroke-width="0" opacity="1" d="M 527 448 L 531 449.5 L 531 731.5 L 529.5 733 L 443.5 733 Q 442.3 732.8 443 726.5 L 450 706.5 L 452 695.5 L 456 687.5 L 456 682.5 L 458 680.5 L 458 676.5 L 465 656.5 L 467 645.5 L 469 643.5 L 471 632.5 L 473 630.5 L 473 626.5 L 480 606.5 L 482 595.5 L 484 593.5 L 486 582.5 L 488 580.5 L 488 576.5 L 495 556.5 L 497 545.5 L 499 543.5 L 501 532.5 L 503 530.5 L 503 526.5 L 505 523.5 L 505 519.5 L 512 499.5 L 512 495.5 L 514 493.5 L 516 482.5 L 518 480.5 L 518 476.5 L 520 473.5 L 520 469.5 L 522 466.5 L 523 459.5 L 527 448 Z M 527 465 Q 527 470 524 472 L 524 476 L 522 479 L 522 483 L 520 485 L 520 489 Q 516 496 515 506 L 513 509 L 513 513 L 511 515 L 511 520 L 507 528 L 505 539 L 498 559 L 498 563 L 496 565 L 494 576 L 492 578 L 492 583 L 490 585 L 490 589 L 483 609 L 483 613 L 481 616 L 481 620 L 479 622 L 477 633 L 475 635 L 475 639 L 468 659 L 468 663 L 466 666 L 466 670 L 462 678 L 462 683 L 460 685 L 460 689 L 458 692 L 457 699 L 448 728 L 448 729 L 514 729 L 514 729 L 514 716 L 518 712 L 527 712 L 527 465 Z M 518 716 L 518 729 L 527 729 L 527 716 L 518 716 Z " /><path fill="rgb(125,122,123)" stroke="rgb(125,122,123)" stroke-width="0" opacity="1" d="M 472 750 L 475 750 L 475 755 L 472 753.5 L 472 750 Z " /><path fill="rgb(125,122,123)" stroke="rgb(125,122,123)" stroke-width="0" opacity="1" d="M 477 750 L 481 751.5 L 479 756 L 477 756 L 477 750 Z " /><path fill="rgb(125,122,123)" stroke="rgb(125,122,123)" stroke-width="0" opacity="1" d="M 464.5 751 L 468 753 L 470 761.5 L 468 767 L 460 767 L 460 764 L 467 764 L 467 758.5 L 466 756 Q 461.3 755 460 758.5 L 458 766 Q 454.3 767.4 456 761.5 L 457 757.5 L 456 752 L 460.5 754 L 464.5 751 Z " /><path fill="rgb(125,122,123)" stroke="rgb(125,122,123)" stroke-width="0" opacity="1" d="M 483.5 752 L 494.5 752 L 496 753.5 L 497 757.5 L 496 762.5 L 491.5 767 Q 486.3 768.3 485 765.5 L 482 753.5 L 483.5 752 Z M 486 756 L 487 763 L 489 764 Q 494 765 494 761 L 494 756 L 486 756 Z " /><path fill="rgb(125,122,123)" stroke="rgb(125,122,123)" stroke-width="0" opacity="1" d="M 974.5 801 L 1008.5 801 L 1010 802.5 L 1010.5 827 L 1012.5 826 L 1015 827 L 1016 829.5 L 1013 833.5 L 1013 836 L 1016 837.5 Q 1010.2 836.7 1008.5 840 L 974.5 840 L 972 837.5 L 972 802 L 974.5 801 Z M 977 804 L 975 806 L 975 836 L 1007 836 L 1007 804 L 977 804 Z M 1010 829 L 1010 834 L 1013 832 Q 1014 827 1010 829 Z " /><path fill="rgb(125,122,123)" stroke="rgb(125,122,123)" stroke-width="0" opacity="1" d="M 719 802 L 757 802 L 757 826.5 L 758.5 826 L 762 827 L 763 833.5 L 762 838 Q 756.9 836.7 755.5 840 L 721.5 840 L 719 839 L 719 802 Z M 724 804 L 722 806 L 722 836 L 754 836 L 754 804 L 724 804 Z M 758 828 L 757 836 L 760 836 L 758 830 L 760 830 L 758 828 Z " /><path fill="rgb(125,122,123)" stroke="rgb(125,122,123)" stroke-width="0" opacity="1" d="M 1229 802 L 1265.5 802 L 1267 803.5 L 1267 826.5 L 1271 827 L 1271 830.5 L 1270 834.5 L 1272 838 Q 1266.5 837.2 1263.5 840 L 1230.5 840 L 1229 838.5 L 1229 802 Z M 1233 804 L 1231 806 L 1231 836 L 1264 836 L 1264 805 L 1262 804 L 1233 804 Z M 1268 828 L 1267 836 L 1269 835 L 1268 828 Z " /><path fill="rgb(125,122,123)" stroke="rgb(125,122,123)" stroke-width="0" opacity="1" d="M 473 803 L 509.5 803 L 511 804.5 L 511.5 830 Q 513.3 826.2 515 829.5 L 515 833.5 L 517 834 L 517 836.5 L 513.5 840 L 511 838.5 Q 511.8 840.8 509.5 840 L 508.5 841 L 474.5 841 L 473 839.5 L 473 803 Z M 477 806 L 475 808 L 475 837 L 477 838 L 507 838 L 508 837 L 508 808 L 507 806 L 477 806 Z " /><path fill="rgb(125,122,123)" stroke="rgb(125,122,123)" stroke-width="0" opacity="1" d="M 1282 1007 L 1319.5 1007 L 1320.5 1008 L 1400 1008 L 1399.5 1010 L 1282 1010 L 1282 1007 Z " /><path fill="rgb(125,122,123)" stroke="rgb(125,122,123)" stroke-width="0" opacity="1" d="M 425.5 1098 L 948.5 1098 L 950 1099.5 L 950 1239.5 L 948.5 1241 L 944.5 1240 L 943.5 1241 L 426.5 1241 L 424 1238.5 L 424 1099.5 L 425.5 1098 Z M 429 1100 L 426 1104 L 426 1236 L 429 1238 L 940 1238 L 941 1237 L 686 1100 L 429 1100 Z M 696 1100 L 694 1102 L 947 1237 L 948 1236 L 948 1101 L 946 1100 L 696 1100 Z " /><path fill="rgb(125,122,123)" stroke="rgb(125,122,123)" stroke-width="0" opacity="1" d="M 1309.5 1239 L 1312 1240.5 L 1312 1243.5 L 1310 1247 Q 1306.5 1248.1 1308 1240.5 L 1309.5 1239 Z " /><path fill="rgb(125,122,123)" stroke="rgb(125,122,123)" stroke-width="0" opacity="1" d="M 1316.5 1239 Q 1319 1240 1318 1244.5 L 1314 1247.5 Q 1312.5 1240.5 1316.5 1239 Z " /><path fill="rgb(125,122,123)" stroke="rgb(125,122,123)" stroke-width="0" opacity="1" d="M 1288.5 1242 L 1291 1243.5 L 1292.5 1246 L 1294 1243 L 1299.5 1242 Q 1306.3 1245.3 1304 1257.5 L 1303 1260 Q 1299.9 1262 1293 1261 L 1294.5 1257 Q 1300.5 1258.5 1302 1255.5 L 1300 1247 L 1297.5 1246 L 1293 1249.5 L 1288.5 1260 Q 1285.5 1260.9 1287 1256.5 Q 1290.2 1254.2 1289 1247.5 L 1287 1243.5 L 1288.5 1242 Z " /><path fill="rgb(125,122,123)" stroke="rgb(125,122,123)" stroke-width="0" opacity="1" d="M 1322.5 1242 L 1334.5 1242 L 1338 1244.5 L 1338 1253.5 L 1332.5 1260 L 1325.5 1261 L 1324 1259.5 Q 1323.6 1250.9 1320 1245.5 L 1322.5 1242 Z M 1325 1247 L 1327 1257 L 1331 1257 L 1334 1255 L 1335 1249 L 1334 1247 L 1325 1247 Z " /><path fill="rgb(125,122,123)" stroke="rgb(125,122,123)" stroke-width="0" opacity="1" d="M 1259 1247 L 1273.5 1247 L 1275 1248.5 L 1273.5 1251 L 1260.5 1251 L 1258 1249.5 L 1259 1247 Z " /><path fill="rgb(125,122,123)" stroke="rgb(125,122,123)" stroke-width="0" opacity="1" d="M 1259.5 1254 L 1274.5 1254 L 1275 1256.5 L 1273.5 1258 L 1260.5 1258 Q 1256 1256 1259.5 1254 Z " /><path fill="rgb(125,122,123)" stroke="rgb(125,122,123)" stroke-width="0" opacity="1" d="M 1288.5 1391 Q 1291.7 1393.3 1298.5 1392 L 1302 1394.5 L 1302 1408.5 L 1300.5 1409 L 1299 1409.5 L 1298 1407.5 L 1298 1396 L 1287.5 1396 L 1286 1394.5 L 1288.5 1391 Z " /><path fill="rgb(125,122,123)" stroke="rgb(125,122,123)" stroke-width="0" opacity="1" d="M 1316.5 1391 L 1322 1395.5 L 1323 1405.5 L 1321 1410 L 1311.5 1410 L 1310 1408.5 L 1312.5 1406 L 1320 1406 Q 1321 1398.7 1316.5 1396 L 1312 1397 L 1310 1404.5 L 1306.5 1410 L 1306 1403.5 Q 1308.3 1402.3 1307 1397.5 L 1306 1392 Q 1309.7 1390.5 1309 1393.5 L 1312 1395 Q 1310.9 1392.3 1313.5 1393 L 1316.5 1391 Z " /><path fill="rgb(125,122,123)" stroke="rgb(125,122,123)" stroke-width="0" opacity="1" d="M 1287 1400 L 1290 1400 L 1290 1408.5 L 1287 1410 L 1287 1400 Z " />
</g>
<g class="pyt-text">
<text class="pyt-word pyt-ltr" x="1283" y="203" font-size="20" text-anchor="start">13</text>
<text class="pyt-word pyt-rtl" x="1303" y="347" font-size="18" text-anchor="end">את</text>
<text class="pyt-word pyt-rtl" x="1252" y="346" font-size="23" text-anchor="end">המשולש</text>
<text class="pyt-word pyt-rtl" x="1132" y="347" font-size="18" text-anchor="end">שבו</text>
<text class="pyt-word pyt-rtl" x="1074" y="351" font-size="23" text-anchor="end">אורך</text>
<text class="pyt-word pyt-rtl" x="998" y="347" font-size="19" text-anchor="end">היתר</text>
<text class="pyt-word pyt-rtl" x="918" y="347" font-size="18" text-anchor="end">הוא</text>
<text class="pyt-word pyt-rtl" x="777" y="347" font-size="20" text-anchor="end">ס&quot;מ.</text>
<text class="pyt-word pyt-ltr" x="1130" y="583" font-size="16" text-anchor="start">12</text>
<text class="pyt-word pyt-rtl" x="1119" y="583" font-size="16" text-anchor="end">ס&quot;מ</text>
<text class="pyt-word pyt-ltr" x="598" y="608" font-size="15" text-anchor="start">0</text>
<text class="pyt-word pyt-rtl" x="586" y="608" font-size="16" text-anchor="end">ס&quot;מ</text>
<text class="pyt-word pyt-rtl" x="1291" y="723" font-size="55" text-anchor="end">ולה</text>
<text class="pyt-word pyt-ltr" x="651" y="717" font-size="79" text-anchor="start">-</text>
<text class="pyt-word pyt-ltr" x="1263" y="762" font-size="15" text-anchor="start">3</text>
<text class="pyt-word pyt-rtl" x="1254" y="762" font-size="15" text-anchor="end">ס&quot;מ</text>
<text class="pyt-word pyt-ltr" x="1007" y="762" font-size="15" text-anchor="start">5</text>
<text class="pyt-word pyt-rtl" x="999" y="762" font-size="15" text-anchor="end">ס&quot;מ</text>
<text class="pyt-word pyt-ltr" x="773" y="764" font-size="15" text-anchor="start">1</text>
<text class="pyt-word pyt-rtl" x="762" y="764" font-size="15" text-anchor="end">ס&quot;מ</text>
<text class="pyt-word pyt-ltr" x="506" y="764" font-size="15" text-anchor="start">3</text>
<text class="pyt-word pyt-ltr" x="1283" y="1000" font-size="19" text-anchor="start">14</text>
<text class="pyt-word pyt-rtl" x="1386" y="1072" font-size="22" text-anchor="end">לפניכם</text>
<text class="pyt-word pyt-rtl" x="1287" y="1077" font-size="27" text-anchor="end">מלבן</text>
<text class="pyt-word pyt-ltr" x="1121" y="1073" font-size="22" text-anchor="start">ABCD‏</text>
<text class="pyt-word pyt-ltr" x="944" y="1083" font-size="15" text-anchor="start">8</text>
<text class="pyt-word pyt-ltr" x="678" y="1083" font-size="15" text-anchor="start">5</text>
<text class="pyt-word pyt-ltr" x="415" y="1083" font-size="14" text-anchor="start">/</text>
<text class="pyt-word pyt-rtl" x="1386" y="1140" font-size="23" text-anchor="end">נתון:</text>
<text class="pyt-word pyt-ltr" x="1369" y="1195" font-size="23" text-anchor="start">8</text>
<text class="pyt-word pyt-rtl" x="1357" y="1196" font-size="19" text-anchor="end">ס&quot;מ</text>
<text class="pyt-word pyt-ltr" x="1276" y="1195" font-size="10" text-anchor="start">=</text>
<text class="pyt-word pyt-ltr" x="1227" y="1195" font-size="21" text-anchor="start">80</text>
<text class="pyt-word pyt-ltr" x="1350" y="1256" font-size="23" text-anchor="start">0</text>
<text class="pyt-word pyt-ltr" x="416" y="1266" font-size="15" text-anchor="start">D</text>
<text class="pyt-word pyt-ltr" x="943" y="1266" font-size="16" text-anchor="start">6</text>
<text class="pyt-word pyt-ltr" x="1205" y="1256" font-size="21" text-anchor="start">CD‏</text>
<text class="pyt-word pyt-rtl" x="1385" y="1322" font-size="22" text-anchor="end">הנקודה</text>
<text class="pyt-word pyt-rtl" x="1280" y="1317" font-size="21" text-anchor="end">ם</text>
<text class="pyt-word pyt-rtl" x="1250" y="1318" font-size="17" text-anchor="end">היא</text>
<text class="pyt-word pyt-rtl" x="1190" y="1319" font-size="19" text-anchor="end">אמצע</text>
<text class="pyt-word pyt-rtl" x="1104" y="1318" font-size="23" text-anchor="end">הצלע</text>
<text class="pyt-word pyt-ltr" x="976" y="1317" font-size="21" text-anchor="start">LAB‏</text>
<text class="pyt-word pyt-rtl" x="1385" y="1406" font-size="16" text-anchor="end">א.</text>
<text class="pyt-word pyt-rtl" x="1273" y="1411" font-size="23" text-anchor="end">אורך</text>
<text class="pyt-word pyt-rtl" x="1201" y="1411" font-size="23" text-anchor="end">הקטע</text>
<text class="pyt-word pyt-ltr" x="1066" y="1406" font-size="22" text-anchor="start">IEC‏</text>
<text class="pyt-word pyt-ltr" x="1255" y="1472" font-size="23" text-anchor="start">IND‏</text>
<text class="pyt-word pyt-rtl" x="1243" y="1467" font-size="17" text-anchor="end">את</text>
<text class="pyt-word pyt-ltr" x="1147" y="1472" font-size="23" text-anchor="start">TIT‏</text>
<text class="pyt-word pyt-rtl" x="1135" y="1472" font-size="23" text-anchor="end">הפתרון:</text>
<text class="pyt-word pyt-rtl" x="1399" y="1939" font-size="16" text-anchor="end">ב.</text>
<text class="pyt-word pyt-rtl" x="1366" y="1940" font-size="18" text-anchor="end">חשבו</text>
<text class="pyt-word pyt-rtl" x="1290" y="1940" font-size="17" text-anchor="end">את</text>
<text class="pyt-word pyt-rtl" x="1242" y="1945" font-size="23" text-anchor="end">הקיף</text>
<text class="pyt-word pyt-rtl" x="1167" y="1940" font-size="17" text-anchor="end">הטרפז</text>
<text class="pyt-word pyt-ltr" x="982" y="1939" font-size="23" text-anchor="start">AECD‏</text>
</g>
</svg>
