<?xml version="1.0" encoding="UTF-8"?>
<svg xmlns="http://www.w3.org/2000/svg" width="1489" height="2105" viewBox="0 0 1489 2105">
<style>
  .pyt-art path:not([fill="rgb(255,255,255)"]):not([fill="rgb(254,254,254)"]):not([fill="rgb(253,253,253)"]):not([fill="rgb(252,252,252)"]){ fill:#000; }
  .pyt-word{ fill:#000; font-family:'Rubik',sans-serif; font-weight:400; }
  .pyt-rtl{ direction:rtl; unicode-bidi:plaintext; }
  .pyt-ltr{ direction:ltr; unicode-bidi:plaintext; }
</style>
<rect width="100%" height="100%" fill="#fff"/>
<g class="pyt-art">
<path fill="rgb(136,133,134)" stroke="rgb(136,133,134)" stroke-width="0" opacity="1" d="M 1281 209 L 1319.5 209 L 1320.5 210 L 1400 210 L 1399.5 212 L 1281 212 L 1281 209 Z " /><path fill="rgb(136,133,134)" stroke="rgb(136,133,134)" stroke-width="0" opacity="1" d="M 1143.5 412 Q 1150.3 410.3 1152 413.5 L 1136 429.5 L 1136 431 L 1134 431 L 1134 433 L 1132 433 L 1132 435 Q 1129.3 433.9 1130 436.5 L 1104 463.5 L 1104 465 L 1102 465 L 1102 467 L 1100 467 L 1100 469 Q 1097.3 467.9 1098 470.5 L 1085 483.5 L 1085 485 Q 1082.3 483.9 1083 486.5 L 1068 501.5 L 1068 503 L 1066 503 L 1066 505 Q 1063.3 503.9 1064 506.5 L 1051 519.5 L 1051 521 Q 1048.3 519.9 1049 522.5 L 1031 540.5 L 1031 542 Q 1028.3 540.9 1029 543.5 L 1019 553.5 L 1019 555 L 1017 555 L 1017 557 Q 1014.3 555.9 1015 558.5 L 999 574.5 L 999 576 L 997 576 L 997 578 Q 994.3 576.9 995 579.5 L 950 626.5 L 950 628 L 948 628 L 948 630 L 946 630 L 946 632 Q 943.3 630.9 944 633.5 L 916 662.5 L 916 664 L 914 664 L 914 666 L 912 666 L 912 668 Q 909.3 666.9 910 669.5 Q 896.6 680.2 888 694 L 886 694 L 886 696 L 884 696 L 884 698 Q 881.3 696.9 882 699.5 L 868.5 713 L 863.5 715 L 856.5 715 L 852.5 717 L 845.5 717 L 840.5 719 L 817.5 722 L 812.5 724 L 805.5 724 L 801.5 726 L 793.5 726 L 790.5 728 L 782.5 728 L 779.5 730 L 772.5 730 L 767.5 732 L 749.5 734 L 727.5 739 L 720.5 739 Q 717.5 742 710.5 741 L 707.5 743 L 698.5 743 L 696.5 745 L 685 745 Q 685.8 739.5 683 736.5 L 683 728.5 L 681 725.5 L 681 717.5 L 679 713.5 L 679 705.5 L 677 701.5 L 677 694.5 L 675 690.5 L 675 683.5 L 673 678.5 L 670 654.5 L 666 638.5 L 666 631.5 L 664 627.5 L 664 620.5 L 662 616.5 L 662 609.5 L 658 593.5 L 655 569.5 L 653 564.5 L 653 557.5 L 651 553.5 L 651 546.5 L 649 542.5 Q 650.2 534.8 647 531.5 L 647 524.5 L 645 519.5 L 643 502.5 L 645.5 500 L 653.5 500 L 657.5 498 L 663.5 498 L 669.5 496 L 693.5 493 L 697.5 491 L 705.5 491 L 708.5 489 Q 716.6 490.6 719.5 487 L 738.5 485 L 742.5 483 L 749.5 483 L 754.5 481 L 777.5 478 L 782.5 476 L 789.5 476 L 793.5 474 L 801.5 474 L 804.5 472 L 811.5 472 L 816.5 470 L 822.5 470 L 827.5 468 L 833.5 468 L 850.5 464 L 862.5 463 L 867.5 461 L 874.5 461 Q 877.8 457.8 885.5 459 L 888.5 457 L 896.5 457 L 900.5 455 L 907.5 455 L 912.5 453 L 918.5 453 L 940.5 448 L 958.5 446 L 963.5 444 L 970.5 444 Q 973.8 440.8 981.5 442 L 984.5 440 L 992.5 440 L 996.5 438 L 1014.5 436 L 1036.5 431 L 1043.5 431 L 1047.5 429 L 1066.5 427 L 1069.5 425 L 1077.5 425 L 1081.5 423 L 1087.5 423 L 1092.5 421 L 1116.5 418 L 1121.5 416 L 1128.5 416 L 1132.5 414 Q 1140.2 415.2 1143.5 412 Z M 1139 416 Q 1135 419 1127 418 L 1124 420 L 1116 420 Q 1112 423 1105 422 L 1101 424 L 1094 424 L 1090 426 L 1083 426 L 1061 431 L 1054 431 Q 1050 434 1043 433 L 1039 435 L 1031 435 L 1028 437 L 1020 437 Q 1016 440 1009 439 L 1005 441 L 998 441 L 982 445 L 970 446 L 965 448 L 958 448 L 954 450 L 947 450 L 943 452 L 936 452 L 932 454 L 925 454 L 909 458 L 903 458 L 880 463 L 874 463 L 869 465 L 862 465 L 858 467 L 851 467 L 847 469 L 840 469 L 836 471 L 829 471 L 824 473 L 801 476 L 796 478 L 777 480 L 773 482 L 766 482 L 762 484 L 755 484 L 751 486 L 744 486 L 739 488 L 716 491 L 711 493 L 704 493 L 700 495 L 693 495 L 689 497 L 682 497 L 678 499 L 670 499 L 667 501 L 659 501 Q 655 504 648 503 L 654 510 Q 656 509 655 512 L 657 512 L 673 528 Q 675 527 674 530 L 684 538 Q 686 537 685 540 L 687 540 L 687 542 L 689 542 L 706 558 L 708 562 L 716 568 Q 718 567 717 570 L 719 570 L 719 572 L 721 572 L 748 598 Q 750 597 749 600 L 751 600 L 751 602 L 753 602 L 780 628 Q 782 627 781 630 L 783 630 L 783 632 L 785 632 L 798 645 Q 800 644 799 647 L 801 647 L 812 658 Q 814 657 813 660 L 815 660 L 815 662 L 817 662 L 833 677 L 846 690 L 859 677 Q 858 674 861 675 L 861 673 L 863 673 L 863 671 L 865 671 L 865 669 L 869 670 L 883 684 Q 885 683 884 686 L 886 686 L 886 688 L 889 688 L 902 675 Q 901 672 904 673 L 904 671 L 906 671 L 906 670 L 916 660 Q 915 657 918 658 L 918 657 L 936 639 Q 935 636 938 637 L 938 635 L 940 635 L 940 634 L 951 623 Q 950 620 953 621 L 953 619 L 955 619 L 955 618 L 985 587 Q 984 584 987 585 L 987 583 L 989 583 L 989 582 L 1017 553 Q 1016 550 1019 551 L 1019 549 L 1021 549 L 1021 548 L 1054 514 Q 1053 511 1056 512 L 1056 510 L 1058 510 L 1058 508 L 1060 508 L 1060 507 L 1088 478 Q 1087 475 1090 476 L 1090 474 L 1092 474 L 1092 472 L 1094 472 L 1094 471 L 1122 442 Q 1121 439 1124 440 L 1124 438 L 1126 438 L 1126 437 L 1145 417 L 1139 416 Z M 647 507 L 647 508 L 647 507 Z M 647 508 L 653 547 L 655 553 L 655 560 L 657 564 L 657 571 L 659 575 L 659 582 L 661 586 L 661 593 L 663 597 L 663 604 L 665 609 L 668 633 L 670 638 L 670 645 Q 673 648 672 656 L 674 660 L 674 667 L 676 671 L 676 678 L 680 694 L 682 711 L 685 713 L 703 709 L 712 709 L 717 737 Q 723 738 726 735 L 734 735 L 738 733 L 745 733 L 749 731 L 756 731 L 760 729 L 767 729 L 789 724 L 795 724 L 800 722 L 819 720 L 822 718 L 830 718 L 833 716 L 841 716 L 845 714 L 862 712 L 863 711 Q 864 708 861 709 L 861 707 L 860 707 L 824 672 Q 821 673 822 670 L 820 670 L 820 668 L 818 668 L 818 666 L 817 666 L 790 640 Q 787 641 788 638 L 786 638 L 786 636 L 784 636 L 784 634 Q 769 624 758 610 Q 755 611 756 608 L 754 608 L 754 606 L 745 598 Q 742 599 743 596 L 742 596 L 726 580 Q 723 581 724 578 L 723 578 L 713 568 Q 710 569 711 566 L 710 566 L 694 550 Q 691 551 692 548 L 683 540 Q 680 541 681 538 L 679 538 L 679 536 L 678 536 L 651 510 Q 648 511 649 508 L 647 508 Z M 867 672 Q 856 680 849 693 L 867 709 L 869 709 L 885 692 L 885 690 L 867 672 Z M 708 711 L 705 713 L 697 713 L 693 715 Q 686 714 684 716 Q 686 721 685 729 L 687 732 Q 686 739 688 742 L 703 739 L 710 739 L 714 737 Q 712 734 713 728 L 711 724 L 711 716 L 709 713 Q 710 710 708 711 Z " /><path fill="rgb(136,133,134)" stroke="rgb(136,133,134)" stroke-width="0" opacity="1" d="M 807.5 735 L 813 737 Q 815.7 739.6 815 746.5 L 809.5 754 Q 806.2 755.1 807 752.5 L 810 748 Q 805 748.8 803 745.5 Q 801.3 738.8 804.5 737 L 807.5 735 Z M 808 737 L 806 740 Q 805 744 809 745 L 811 744 Q 811 739 808 737 Z " /><path fill="rgb(136,133,134)" stroke="rgb(136,133,134)" stroke-width="0" opacity="1" d="M 775 741 L 779 743.5 L 777.5 746 L 775 744.5 L 775 741 Z " /><path fill="rgb(136,133,134)" stroke="rgb(136,133,134)" stroke-width="0" opacity="1" d="M 789.5 741 Q 795 740 796 743.5 L 796 750.5 L 789.5 758 Q 785.5 758.5 785 755.5 L 780 745.5 L 782.5 742 Q 788 743.5 789.5 741 Z M 788 745 L 785 748 L 787 751 Q 786 754 789 753 L 790 754 L 793 751 Q 796 742 788 745 Z " /><path fill="rgb(136,133,134)" stroke="rgb(136,133,134)" stroke-width="0" opacity="1" d="M 771.5 742 L 774 743.5 L 773 748 Q 770.3 749.1 771 746.5 L 769 743.5 L 771.5 742 Z " /><path fill="rgb(136,133,134)" stroke="rgb(136,133,134)" stroke-width="0" opacity="1" d="M 762.5 746 L 767 749.5 L 769 757.5 L 766.5 762 L 760 763 Q 757.8 757 764.5 759 Q 768.8 757.2 766 755.5 L 763.5 751 Q 759.1 749.5 760 752.5 Q 757.2 755.2 758 761.5 L 756.5 763 Q 754.3 763.8 755 761.5 Q 757.5 760 756 754.5 Q 752.8 753 754 748 L 757.5 750 L 762.5 746 Z " /><path fill="rgb(136,133,134)" stroke="rgb(136,133,134)" stroke-width="0" opacity="1" d="M 694.5 808 Q 697.4 810.6 703.5 810 L 705 811.5 L 703.5 817 L 701 813 Q 698.6 811.3 692.5 812 L 689 814.5 Q 685.8 817.8 687 825.5 L 691.5 832 Q 699.8 832.9 704 831 Q 705.1 833.7 702.5 833 L 700.5 835 L 693.5 836 L 685 833 L 682 826.5 L 682 818.5 L 685 812 L 694.5 808 Z " /><path fill="rgb(136,133,134)" stroke="rgb(136,133,134)" stroke-width="0" opacity="1" d="M 709 810 L 724.5 810 L 731 815.5 Q 733.5 819 732 826.5 L 727.5 833 L 723.5 835 L 708 835 L 709 832.5 L 709 810 Z M 716 812 L 714 814 L 714 831 L 716 832 L 724 831 L 727 827 Q 728 820 726 817 L 723 813 L 716 812 Z " /><path fill="rgb(136,133,134)" stroke="rgb(136,133,134)" stroke-width="0" opacity="1" d="M 676 831 L 680 832.5 L 678.5 835 L 675 833.5 L 676 831 Z " />
</g>
<g class="pyt-text">
<text class="pyt-word pyt-ltr" x="1283" y="202" font-size="19" text-anchor="start">11</text>
<text class="pyt-word pyt-rtl" x="1382" y="338" font-size="18" text-anchor="end">בסרטוט</text>
<text class="pyt-word pyt-rtl" x="1267" y="337" font-size="23" text-anchor="end">שלפניכם</text>
<text class="pyt-word pyt-rtl" x="1143" y="339" font-size="19" text-anchor="end">המרובע</text>
<text class="pyt-word pyt-ltr" x="930" y="337" font-size="24" text-anchor="start">ABCD‏</text>
<text class="pyt-word pyt-rtl" x="919" y="337" font-size="17" text-anchor="end">בנוי</text>
<text class="pyt-word pyt-rtl" x="859" y="338" font-size="18" text-anchor="end">משני</text>
<text class="pyt-word pyt-rtl" x="786" y="337" font-size="23" text-anchor="end">משולשים</text>
<text class="pyt-word pyt-rtl" x="654" y="338" font-size="18" text-anchor="end">ישרי&quot;זווית.</text>
<text class="pyt-word pyt-ltr" x="1155" y="420" font-size="16" text-anchor="start">D‏</text>
<text class="pyt-word pyt-ltr" x="884" y="442" font-size="19" text-anchor="start">25</text>
<text class="pyt-word pyt-rtl" x="876" y="451" font-size="18" text-anchor="end">ס&quot;מ</text>
<text class="pyt-word pyt-ltr" x="624" y="492" font-size="15" text-anchor="start">A‏</text>
<text class="pyt-word pyt-ltr" x="631" y="636" font-size="19" text-anchor="start">12</text>
<text class="pyt-word pyt-rtl" x="621" y="645" font-size="19" text-anchor="end">ס&quot;מ</text>
<text class="pyt-word pyt-ltr" x="859" y="738" font-size="15" text-anchor="start">0</text>
<text class="pyt-word pyt-ltr" x="680" y="768" font-size="15" text-anchor="start">sg</text>
<text class="pyt-word pyt-rtl" x="1383" y="832" font-size="23" text-anchor="end">על</text>
<text class="pyt-word pyt-rtl" x="1341" y="836" font-size="23" text-anchor="end">סמך</text>
<text class="pyt-word pyt-rtl" x="1273" y="831" font-size="17" text-anchor="end">הנתונים</text>
<text class="pyt-word pyt-rtl" x="1158" y="835" font-size="22" text-anchor="end">שבסרטוט,</text>
<text class="pyt-word pyt-rtl" x="1015" y="836" font-size="23" text-anchor="end">חַשבו</text>
<text class="pyt-word pyt-rtl" x="937" y="831" font-size="17" text-anchor="end">את</text>
<text class="pyt-word pyt-rtl" x="886" y="836" font-size="23" text-anchor="end">אורך</text>
<text class="pyt-word pyt-rtl" x="812" y="832" font-size="23" text-anchor="end">הצלע</text>
<text class="pyt-word pyt-rtl" x="1382" y="898" font-size="23" text-anchor="end">הַציגו</text>
<text class="pyt-word pyt-rtl" x="1302" y="893" font-size="17" text-anchor="end">את</text>
<text class="pyt-word pyt-ltr" x="1203" y="898" font-size="23" text-anchor="start">TIT‏</text>
<text class="pyt-word pyt-rtl" x="1192" y="898" font-size="23" text-anchor="end">הפתרון:</text>
</g>
</svg>
