<?xml version="1.0" encoding="UTF-8"?>
<svg xmlns="http://www.w3.org/2000/svg" width="1489" height="2105" viewBox="0 0 1489 2105">
<style>
  .pyt-art path:not([fill="rgb(255,255,255)"]):not([fill="rgb(254,254,254)"]):not([fill="rgb(253,253,253)"]):not([fill="rgb(252,252,252)"]){ fill:#000; }
  .pyt-word{ fill:#000; font-family:'Rubik',sans-serif; font-weight:400; }
  .pyt-rtl{ direction:rtl; unicode-bidi:plaintext; }
  .pyt-ltr{ direction:ltr; unicode-bidi:plaintext; }
</style>
<rect width="100%" height="100%" fill="#fff"/>
<g class="pyt-art">
<path fill="rgb(77,74,77)" stroke="rgb(77,74,77)" stroke-width="0" opacity="1" d="M 853 300 L 856 300 L 856 305.5 Q 859.5 304.7 858 311 L 861 311.5 L 861 320 L 864 320 L 864 325 L 866 325 L 866 328 Q 870.1 326.7 869 330 L 858.5 330 L 858 328 Q 862.5 329.5 861 325 L 858 325 L 857.5 322 L 847 322 L 847 325 Q 843.7 323.9 845 328 Q 848 327 847 330 L 839.5 330 L 839 328 L 842 328 Q 840.5 323.5 845 325 Q 843.5 318.7 847 319.5 L 847 311 L 850 311 L 850 306 L 853 306 L 853 300 Z M 850 311 L 850 320 L 856 320 L 856 311 L 850 311 Z " /><path fill="rgb(77,74,77)" stroke="rgb(77,74,77)" stroke-width="0" opacity="1" d="M 880 300 L 896 300 L 896 309 Q 892.7 310.1 894 306 L 891 306 L 891 303 L 880 303 L 880 306 L 877 306.5 L 877 325 L 880 325 L 880.5 328 L 891 328 L 891 330 L 877.5 330 Q 878.1 327.3 875 328 L 875 322 L 872 321.5 L 872 309 L 875 309 L 875 303 L 880 303 L 880 300 Z " /><path fill="rgb(77,74,77)" stroke="rgb(77,74,77)" stroke-width="0" opacity="1" d="M 907 303 L 910 303 L 910 309 L 913 309.5 L 913 325 L 910 325 L 910 333 L 905 333 Q 903.5 326.7 907 327.5 L 907 309 Q 903.7 310.1 905 306 Q 908.3 307.1 907 303 Z " /><path fill="rgb(77,74,77)" stroke="rgb(77,74,77)" stroke-width="0" opacity="1" d="M 190 341 L 195 341 L 195 350 L 198 350.5 L 198 360.5 L 201 361.5 L 201 370.5 L 204 371.5 L 204 381.5 L 206 382.5 L 206 393 L 209 393.5 L 209 404 L 212 404.5 L 212 414.5 L 214 415.5 L 214 425.5 L 217 426 L 217 436.5 L 220 437.5 L 220 447.5 L 223 448.5 L 223 458.5 L 225 459.5 L 225 469.5 L 228 470 L 228 480.5 L 231 481.5 L 231 491.5 L 234 492.5 L 234 502.5 L 236 503.5 L 236 513.5 L 239 514 L 239 524.5 L 242 525.5 L 242 534.5 L 244 535.5 L 244 545.5 L 247 546 L 247 556.5 L 250 557.5 L 250 567.5 L 253 568.5 L 253 578.5 L 255 579.5 L 255 593 L 130.5 593 L 130 592.5 L 130 582 L 133 581.5 L 133 571.5 L 135 570.5 L 135 560.5 L 138 560 L 138 549.5 L 141 548.5 L 141 538.5 L 144 537.5 L 144 527.5 L 146 526.5 L 146 516.5 L 149 516 L 149 505.5 L 152 504.5 L 152 494.5 L 154 493.5 L 154 484 L 157 483.5 L 157 473 L 160 472.5 L 160 462.5 L 163 461.5 L 163 451.5 L 165 450.5 L 165 440.5 L 168 440 L 168 429.5 L 171 428.5 L 171 418.5 L 174 417.5 L 174 407.5 L 176 406.5 L 176 396.5 L 179 396 L 179 385.5 L 182 384.5 L 182 374.5 L 184 373.5 L 184 363 L 187 362.5 L 187 352 L 190 351.5 L 190 341 Z M 193 352 L 193 355 L 190 356 L 190 366 L 187 367 L 187 377 L 184 378 L 184 388 L 182 389 L 182 399 L 179 400 L 179 410 L 176 411 L 176 421 L 174 422 L 174 432 L 171 433 L 171 443 L 168 444 L 168 453 L 165 454 L 165 464 L 163 465 L 163 475 L 160 476 L 160 486 L 157 487 L 157 497 L 154 498 L 154 508 L 152 509 L 152 519 L 149 520 L 149 530 L 146 530 L 146 541 L 154 541 L 154 544 L 163 544 Q 162 547 165 546 L 165 555 Q 162 554 163 563 L 160 563 L 160 566 L 168 566 L 169 568 L 179 568 L 180 571 L 190 571 L 191 574 L 201 574 L 202 576 L 214 576 L 215 579 L 225 579 L 226 582 L 236 582 L 237 585 L 247 585 L 247 587 L 253 587 L 253 582 L 250 582 L 250 571 L 247 571 L 247 560 L 244 560 L 244 550 L 242 549 L 242 539 L 239 538 L 239 528 L 236 527 L 236 517 L 234 516 L 234 505 L 231 505 L 231 495 L 228 494 L 228 484 L 225 484 L 225 474 L 223 473 L 223 463 L 220 462 L 220 452 L 217 451 L 217 440 L 214 440 L 214 430 L 212 429 L 212 419 L 209 418 L 209 408 L 206 407 L 206 397 L 204 396 L 204 386 L 201 385 L 201 375 L 198 374 L 198 364 L 195 363 L 195 353 L 193 352 Z M 144 544 L 144 552 L 141 552 L 141 560 L 146 560 L 146 563 L 157 563 L 157 560 L 160 560 L 160 552 L 163 552 Q 165 548 160 549 L 160 546 L 153 546 L 152 544 L 144 544 Z M 138 563 L 138 574 L 135 574 L 135 585 L 133 585 L 134 590 L 242 590 L 242 587 L 232 587 L 231 585 L 221 585 L 220 582 L 210 582 L 209 579 L 199 579 L 198 576 L 188 576 L 187 574 L 177 574 L 176 571 L 166 571 L 165 568 L 155 568 L 154 566 L 145 566 L 144 563 L 138 563 Z " /><path fill="rgb(77,74,77)" stroke="rgb(77,74,77)" stroke-width="0" opacity="1" d="M 825 374 L 832 374 L 832 380 L 825 380 L 825 374 Z " /><path fill="rgb(77,74,77)" stroke="rgb(77,74,77)" stroke-width="0" opacity="1" d="M 924 374 L 930 374 L 930 380 L 921 380 L 921 377 Q 925.5 378.5 924 374 Z " /><path fill="rgb(77,74,77)" stroke="rgb(77,74,77)" stroke-width="0" opacity="1" d="M 825 382 L 831 382 L 831 393 L 828 393 Q 829.5 397.5 825 396 L 825 382 Z " /><path fill="rgb(77,74,77)" stroke="rgb(77,74,77)" stroke-width="0" opacity="1" d="M 924 382 L 926 382.5 L 926 396 L 929 396 L 929.5 393 L 930 395.5 L 929 402 L 926 402 Q 927 405 924 404 L 924 382 Z " /><path fill="rgb(77,74,77)" stroke="rgb(77,74,77)" stroke-width="0" opacity="1" d="M 869 432 L 890.5 432 Q 889.8 435 894 434 L 894 440 L 896 440.5 L 896 453 L 894 453 L 894 459 L 888 459 L 888 462 L 869 462 L 869 459 L 872 458.5 L 872 434 Q 867.9 435.3 869 432 Z M 877 434 L 877 459 L 888 459 L 888 456 L 891 456 L 891 437 L 888 437 L 888 434 L 877 434 Z " /><path fill="rgb(77,74,77)" stroke="rgb(77,74,77)" stroke-width="0" opacity="1" d="M 899 432 L 917.5 432 Q 916.8 435 921 434 L 921 447.5 L 924 448.5 L 924 459 L 921 459 L 920.5 462 L 899 462 L 899 459 L 902 458.5 L 902 434 Q 897.9 435.3 899 432 Z M 907 434 L 907 445 L 916 445 Q 915 442 918 443 L 918 438 Q 915 438 916 434 L 907 434 Z M 907 448 L 907 459 L 918 459 L 918 452 Q 915 452 916 448 L 907 448 Z " /><path fill="rgb(77,74,77)" stroke="rgb(77,74,77)" stroke-width="0" opacity="1" d="M 1150 443 L 1153 443.5 L 1153 453 L 1150 453 L 1150 456 Q 1145.5 454.5 1147 459 Q 1151.5 457.5 1150 462 L 1142 462 L 1142 459 L 1145 459 Q 1144 454.8 1147 455.5 L 1147 451 L 1150 451 L 1150 443 Z " /><path fill="rgb(77,74,77)" stroke="rgb(77,74,77)" stroke-width="0" opacity="1" d="M 1216 443 Q 1219 442 1218 445 Q 1215 446 1216 443 Z " /><path fill="rgb(77,74,77)" stroke="rgb(77,74,77)" stroke-width="0" opacity="1" d="M 1216 451 L 1218 451 L 1218 456 L 1216 456 L 1216 451 Z " /><path fill="rgb(77,74,77)" stroke="rgb(77,74,77)" stroke-width="0" opacity="1" d="M 768 497 L 771 497 L 771 503 L 774 503 Q 772.5 509.3 776 508.5 L 776 516 L 779 516.5 L 779 522 L 782 522 L 782 525 Q 786.1 523.7 785 527 L 774.5 527 L 774 525 Q 777.3 526.1 776 522 L 774 522 L 773.5 519 L 763 519 L 763 522 Q 758.5 520.5 760 525 Q 764.1 523.7 763 527 L 755.5 527 L 755 525 L 757 525 L 757 519 L 760 519 L 760 514 L 763 514 L 763 508 L 765 508 L 765 503 L 768 503 L 768 497 Z M 765 508 L 765 514 L 763 514 L 764 516 L 771 516 L 771 508 L 765 508 Z " /><path fill="rgb(77,74,77)" stroke="rgb(77,74,77)" stroke-width="0" opacity="1" d="M 787 497 L 804 497 L 804 500 L 809 500 L 809 511 Q 804.5 509.5 806 514 L 809 514 Q 807.9 517.3 812 516 L 812 522 L 809 522 L 808.5 527 L 787 527 L 787 525 L 790 524.5 L 790 503 L 787 503 L 787 497 Z M 793 500 L 793 511 L 804 511 L 804 504 L 801 503 L 801 500 L 793 500 Z M 793 514 L 793 525 L 804 525 L 804 522 L 806 522 L 806 517 Q 803 517 804 514 L 793 514 Z " /><path fill="rgb(77,74,77)" stroke="rgb(77,74,77)" stroke-width="0" opacity="1" d="M 823 497 L 839 497 L 839 505 L 836 505 Q 837 502 834 503 L 834 500 L 823 500 L 823 505 L 820 505.5 L 820 519 L 823 519 L 823 525 L 836 525 Q 834.5 520.5 839 522 L 839 525 Q 834.8 524 835.5 527 L 820 527 L 820 525 L 817 525 Q 818 520.8 815 521.5 L 815 505 Q 818 506 817 503 L 820 503 L 820 500 Q 824.5 501.5 823 497 Z " /><path fill="rgb(77,74,77)" stroke="rgb(77,74,77)" stroke-width="0" opacity="1" d="M 733 500 Q 736.3 498.9 735 503 L 738 503 L 738 511 L 741 511 L 741 516 L 744 516 L 744 524.5 Q 746.8 523.9 746 527 L 722 527 L 722 519 L 725 519 Q 723.5 512.7 727 513.5 L 727 508 L 730 508 L 730 503 Q 734.5 504.5 733 500 Z M 730 508 L 730 516 L 727 516 L 727 522 L 725 522 L 726 525 L 738 525 L 738 516 L 735 516 L 735 512 Q 732 512 733 508 L 730 508 Z " /><path fill="rgb(77,74,77)" stroke="rgb(77,74,77)" stroke-width="0" opacity="1" d="M 697 522 L 700 522 L 700 527 L 697 527 L 697 522 Z " />
</g>
<g class="pyt-text">
<text class="pyt-word pyt-ltr" x="1283" y="202" font-size="19" text-anchor="start">21</text>
<text class="pyt-word pyt-rtl" x="1393" y="324" font-size="27" text-anchor="end">במשולש</text>
<text class="pyt-word pyt-rtl" x="1254" y="333" font-size="27" text-anchor="end">שווה-שוקיים</text>
<text class="pyt-word pyt-ltr" x="182" y="331" font-size="23" text-anchor="start">A</text>
<text class="pyt-word pyt-ltr" x="703" y="331" font-size="35" text-anchor="start">JAB</text>
<text class="pyt-word pyt-ltr" x="798" y="322" font-size="13" text-anchor="start">=</text>
<text class="pyt-word pyt-ltr" x="935" y="324" font-size="27" text-anchor="start">ABC‏</text>
<text class="pyt-word pyt-rtl" x="1393" y="392" font-size="20" text-anchor="end">הגובה</text>
<text class="pyt-word pyt-ltr" x="1218" y="390" font-size="27" text-anchor="start">CD‏</text>
<text class="pyt-word pyt-rtl" x="1199" y="396" font-size="34" text-anchor="end">לשוק</text>
<text class="pyt-word pyt-ltr" x="1033" y="390" font-size="27" text-anchor="start">AB‏</text>
<text class="pyt-word pyt-rtl" x="1015" y="400" font-size="42" text-anchor="end">מחלק</text>
<text class="pyt-word pyt-rtl" x="913" y="400" font-size="42" text-anchor="end">אותה</text>
<text class="pyt-word pyt-rtl" x="815" y="400" font-size="42" text-anchor="end">לשני</text>
<text class="pyt-word pyt-rtl" x="730" y="398" font-size="27" text-anchor="end">קטעים:</text>
<text class="pyt-word pyt-ltr" x="1349" y="456" font-size="27" text-anchor="start">1</text>
<text class="pyt-word pyt-rtl" x="1330" y="462" font-size="34" text-anchor="end">סיימ</text>
<text class="pyt-word pyt-ltr" x="1220" y="453" font-size="12" text-anchor="start">=</text>
<text class="pyt-word pyt-ltr" x="1155" y="456" font-size="27" text-anchor="start">AD‏</text>
<text class="pyt-word pyt-ltr" x="1117" y="467" font-size="13" text-anchor="start">,</text>
<text class="pyt-word pyt-ltr" x="1078" y="465" font-size="41" text-anchor="start">3</text>
<text class="pyt-word pyt-rtl" x="1093" y="456" font-size="27" text-anchor="end">סיימ</text>
<text class="pyt-word pyt-ltr" x="940" y="453" font-size="12" text-anchor="start">=</text>
<text class="pyt-word pyt-ltr" x="845" y="461" font-size="10" text-anchor="start">.</text>
<text class="pyt-word pyt-rtl" x="1393" y="523" font-size="20" text-anchor="end">חשבו</text>
<text class="pyt-word pyt-rtl" x="1300" y="523" font-size="20" text-anchor="end">את</text>
<text class="pyt-word pyt-rtl" x="1237" y="529" font-size="27" text-anchor="end">אורך</text>
<text class="pyt-word pyt-rtl" x="1150" y="523" font-size="20" text-anchor="end">הבסיס</text>
<text class="pyt-word pyt-ltr" x="935" y="523" font-size="30" text-anchor="start">(BC)‏</text>
<text class="pyt-word pyt-rtl" x="913" y="521" font-size="27" text-anchor="end">של</text>
<text class="pyt-word pyt-rtl" x="127" y="561" font-size="23" text-anchor="end">ם</text>
<text class="pyt-word pyt-ltr" x="122" y="618" font-size="23" text-anchor="start">B</text>
<text class="pyt-word pyt-ltr" x="242" y="618" font-size="23" text-anchor="start">0‏</text>
<text class="pyt-word pyt-ltr" x="1169" y="1817" font-size="19" text-anchor="start">21</text>
<text class="pyt-word pyt-ltr" x="1335" y="1882" font-size="23" text-anchor="start">=BC‏</text>
<text class="pyt-word pyt-ltr" x="1296" y="1882" font-size="19" text-anchor="start">12</text>
<text class="pyt-word pyt-rtl" x="1284" y="1883" font-size="17" text-anchor="end">סיימ</text>
</g>
</svg>
