<?xml version="1.0" encoding="UTF-8"?>
<svg xmlns="http://www.w3.org/2000/svg" width="1489" height="2105" viewBox="0 0 1489 2105">
<style>
  .pyt-art path:not([fill="rgb(255,255,255)"]):not([fill="rgb(254,254,254)"]):not([fill="rgb(253,253,253)"]):not([fill="rgb(252,252,252)"]){ fill:#000; }
  .pyt-word{ fill:#000; font-family:'Rubik',sans-serif; font-weight:400; }
  .pyt-rtl{ direction:rtl; unicode-bidi:plaintext; }
  .pyt-ltr{ direction:ltr; unicode-bidi:plaintext; }
</style>
<rect width="100%" height="100%" fill="#fff"/>
<g class="pyt-art">
<path fill="rgb(93,92,92)" stroke="rgb(93,92,92)" stroke-width="0" opacity="1" d="M 203 357 L 207.5 357 Q 206.8 360 211 359 L 211 362 Q 214 361 213 364 L 219 364 L 219 367 Q 222.3 365.9 221 370 Q 225.3 369 224.5 372 L 229 372 L 229 375 L 232 375 Q 231 378 234 377 L 234 380 L 239 380 L 239 383 L 242 383 Q 240.9 386.3 245 385 L 245 388 L 250 388 Q 249 391 252 390 L 252 393 Q 256.1 391.7 255 395 L 260 395 L 260 398 L 263 398 L 263 401 Q 266 400 265 403 L 270 403 L 270 406 L 273 406 Q 271.9 409.3 276 408 L 276 411 L 281 411 L 281 414 Q 284 413 283 416 L 286 416 L 286 419 L 290.5 419 Q 289.8 422 294 421 L 294 424 Q 297.3 422.9 296 427 L 301 427 L 301 429 L 304 429 L 304 432 Q 308.1 430.7 307 434 L 312 434 L 312 437 Q 315 436 314 439 L 317 439 L 317 442 L 322 442 L 322 445 L 325 445 Q 324 448 327 447 L 327 450 L 332 450 Q 330.9 453.3 335 452 L 335 455 L 338 455 L 338 458 L 343 458 Q 342 461 345 460 L 345 463 Q 349.3 462 348.5 465 L 353 465 L 353 468 L 356 468 L 356 471 Q 359 470 358 473 L 363 473 L 363 476 L 366 476 Q 364.9 479.3 369 478 L 369 481 L 374 481 L 374 484 Q 377 483 376 486 L 379 486 L 379 489 L 384 489 Q 382.9 492.3 387 491 L 387 494 Q 390 493 389 496 L 394 496 L 394 499 Q 398.5 497.5 397 502 Q 401.3 501 400.5 504 L 405 504 L 405 507 Q 408 506 407 509 L 410 509 L 410 512 L 415 512 L 415 515 L 418 515 Q 417 518 420 517 L 420 520 L 424.5 520 Q 423.8 523 428 522 L 428 525 Q 432.5 523.5 431 528 L 436 528 Q 435 531 438 530 L 438 533 Q 442.3 532 441.5 535 L 446 535 L 446 538 L 449 538 Q 448 541 451 540 L 451 543 L 456 543 L 456 546 L 459 546 Q 457.9 549.3 462 548 L 462 551 L 467 551 Q 466 554 469 553 L 469 559 L 203 559 L 203 357 Z M 206 362 L 206 533 L 224 533 L 224 530 Q 227 531 226 528 Q 231 530 229 525 L 232 525 L 232 522 Q 235 523 234 520 L 237 520 Q 236 516 239 517 L 239 512 Q 244 514 242 509 L 245 509 Q 244 506 247 507 L 247 504 L 250 504 Q 249 501 252 502 L 252 499 L 255 499 L 255 496 Q 258 497 257 494 L 260 494 L 260 489 L 263 489 L 263 486 Q 266 487 265 484 L 268 484 Q 267 480 270 481 L 270 478 Q 274 479 273 476 L 276 476 Q 275 472 278 473 L 278 468 L 281 468 L 281 465 Q 284 466 283 463 L 286 463 L 286 460 Q 289 461 288 458 L 291 458 L 291 455 L 294 455 Q 293 451 296 452 L 296 447 L 299 447 Q 298 444 301 445 Q 300 441 304 442 L 304 439 L 307 439 L 307 434 L 301 434 Q 302 431 299 432 L 299 429 Q 295 430 296 427 L 291 427 L 291 424 L 288 424 L 288 421 Q 285 422 286 419 L 281 419 L 281 416 L 278 416 Q 279 413 276 414 L 276 411 L 270 411 L 270 408 Q 267 409 268 406 L 265 406 L 265 403 L 261 403 Q 261 400 257 401 L 257 398 Q 254 399 255 395 L 251 395 Q 251 392 247 393 L 247 390 Q 244 391 245 388 L 239 388 L 239 385 Q 236 386 237 383 L 234 383 L 234 380 L 229 380 L 229 377 L 226 377 Q 227 374 224 375 L 224 372 L 219 372 Q 220 369 216 370 L 216 367 L 213 367 L 213 364 L 208 364 Q 209 361 206 362 Z M 309 439 Q 310 443 307 442 L 307 445 L 304 445 Q 305 448 301 447 L 301 450 L 299 450 Q 298 453 301 452 L 301 455 L 304 455 L 304 458 L 307 458 Q 306 461 309 460 L 309 463 L 314 463 Q 313 459 317 460 L 317 456 Q 320 456 319 452 L 322 452 L 322 447 L 319 447 Q 320 444 317 445 L 317 442 L 312 442 Q 314 438 309 439 Z M 325 452 Q 327 457 322 455 L 322 458 L 319 458 Q 320 461 317 460 L 317 465 Q 313 464 314 468 Q 311 469 312 465 L 308 465 Q 308 462 304 463 L 304 460 L 301 460 Q 302 457 299 458 L 299 455 L 296 455 L 296 458 Q 293 457 294 460 L 291 460 L 291 463 L 288 463 Q 289 466 286 465 L 286 468 L 283 468 L 283 471 Q 280 470 281 473 L 278 473 Q 279 477 276 477 L 276 481 Q 272 480 273 484 L 270 484 Q 271 487 268 486 L 268 489 L 265 489 Q 266 492 263 491 L 263 494 Q 259 493 260 496 L 257 496 L 257 502 Q 254 501 255 504 L 252 504 L 252 507 Q 249 506 250 509 L 247 509 Q 248 513 245 512 L 245 515 Q 241 514 242 517 L 239 517 L 239 522 Q 236 521 237 525 L 234 525 L 234 528 Q 231 527 232 530 L 229 530 L 229 553 L 230 553 L 462 553 L 462 551 L 456 551 L 456 548 Q 453 549 454 546 L 451 546 L 451 543 L 446 543 L 446 540 Q 443 541 444 538 L 441 538 L 441 535 L 437 535 Q 437 532 433 533 L 433 530 Q 430 531 431 528 L 425 528 Q 426 524 423 525 L 423 522 Q 419 523 420 520 L 415 520 L 415 517 Q 412 518 413 515 L 410 515 L 410 512 L 405 512 L 405 509 L 402 509 Q 403 506 400 507 L 400 504 L 394 504 Q 395 501 392 502 L 392 499 L 389 499 L 389 496 L 385 496 Q 385 493 381 494 L 381 491 Q 378 492 379 489 L 374 489 L 374 486 L 371 486 Q 372 483 369 484 L 369 481 L 363 481 L 363 478 Q 360 479 361 476 L 358 476 L 358 473 L 354 473 Q 354 470 350 471 Q 351 467 348 468 L 348 465 L 344 465 Q 344 462 340 463 L 340 460 Q 337 461 338 458 L 332 458 Q 333 454 330 455 L 330 452 L 325 452 Z M 206 535 L 206 551 Q 209 552 208 548 L 211 548 Q 210 545 213 546 L 213 543 L 216 543 L 216 540 L 219 540 L 219 535 L 206 535 Z M 221 538 L 221 543 Q 218 542 219 546 L 216 546 L 216 548 L 213 548 Q 214 552 211 551 L 212 553 L 224 553 L 224 539 L 221 538 Z " /><path fill="rgb(93,92,92)" stroke="rgb(93,92,92)" stroke-width="0" opacity="1" d="M 914 362 L 917 362 Q 916 365 919 364 L 919 371.5 L 922 372 L 922 380 L 924 380 L 924 385 L 927 385 L 927 388 Q 930 387 929 390 L 919.5 390 L 919 388 Q 923.5 389.5 922 385 Q 917.8 386 918.5 383 L 909 383 Q 910.1 386.3 906 385 L 906 388 Q 910.1 386.7 909 390 L 901.5 390 L 901 388 L 904 388 Q 903 383.8 906 384.5 L 906 380 L 909 380 L 909 372.5 Q 912.5 373.3 911 367 L 914 367 L 914 362 Z M 911 372 L 911 380 L 917 380 L 917 372 L 911 372 Z " /><path fill="rgb(93,92,92)" stroke="rgb(93,92,92)" stroke-width="0" opacity="1" d="M 940 362 L 955 362 L 955 370 Q 951.7 371.1 953 367 L 950 367 L 950 364 L 940 364 L 940 367 L 937 367.5 L 937 385 L 940 385 L 940.5 388 L 950 388 L 950 390 L 937.5 390 Q 938.1 387.3 935 388 L 935 383 L 932 382.5 L 932 370 L 935 370 L 935 364 L 940 364 L 940 362 Z " /><path fill="rgb(93,92,92)" stroke="rgb(93,92,92)" stroke-width="0" opacity="1" d="M 1012 370 L 1016.5 370 Q 1015.7 373.5 1022 372 L 1022.5 370 L 1030 370 L 1030 372 L 1033 372.5 L 1033 390 L 1020.5 390 L 1020 388 L 1022 388 L 1022.5 385 L 1030 385 L 1030 377 Q 1026.9 377.8 1027.5 375 L 1022 375 Q 1022.8 378.1 1020 377.5 L 1020 383 L 1017 383 L 1017 390 L 1012 390 L 1012 388 L 1015 387.5 L 1015 375 L 1012 375 L 1012 370 Z " /><path fill="rgb(93,92,92)" stroke="rgb(93,92,92)" stroke-width="0" opacity="1" d="M 1038 370 Q 1045.5 367.5 1043 375 L 1041 375 L 1041 380 L 1038 380 L 1038 370 Z " /><path fill="rgb(93,92,92)" stroke="rgb(93,92,92)" stroke-width="0" opacity="1" d="M 1046 370 L 1051 370 L 1051 377 L 1048 377 L 1048 383 L 1046 383 L 1046 370 Z " /><path fill="rgb(93,92,92)" stroke="rgb(93,92,92)" stroke-width="0" opacity="1" d="M 1056 370 L 1074 370 L 1074 372 L 1077 372.5 L 1077 383 L 1074 383 Q 1075 386 1072 385 L 1072 388 Q 1067.9 386.7 1069 390 L 1059 390 L 1059 383 L 1056 383 L 1056 375.5 L 1053 375 L 1053 372 Q 1057.1 373.3 1056 370 Z M 1061 375 L 1061 383 L 1064 383 L 1064 385 L 1069 385 Q 1068 382 1072 383 L 1072 375 L 1061 375 Z " /><path fill="rgb(93,92,92)" stroke="rgb(93,92,92)" stroke-width="0" opacity="1" d="M 968 372 L 993.5 372 L 994 375 L 968.5 375 L 968 372 Z " /><path fill="rgb(93,92,92)" stroke="rgb(93,92,92)" stroke-width="0" opacity="1" d="M 968 380 L 993.5 380 L 994 385 L 971.5 385 Q 972.3 382 968 383 L 968 380 Z " /><path fill="rgb(93,92,92)" stroke="rgb(93,92,92)" stroke-width="0" opacity="1" d="M 888 385 L 891 385 L 891 390 L 888 390 L 888 385 Z " />
</g>
<g class="pyt-text">
<text class="pyt-word pyt-ltr" x="1283" y="203" font-size="20" text-anchor="start">20</text>
<text class="pyt-word pyt-rtl" x="1415" y="322" font-size="25" text-anchor="end">במשולש</text>
<text class="pyt-word pyt-rtl" x="1281" y="324" font-size="19" text-anchor="end">ישר-זווית</text>
<text class="pyt-word pyt-rtl" x="1126" y="324" font-size="19" text-anchor="end">המתואר</text>
<text class="pyt-word pyt-rtl" x="989" y="324" font-size="19" text-anchor="end">בסרטוט</text>
<text class="pyt-word pyt-ltr" x="777" y="325" font-size="28" text-anchor="start">)907</text>
<text class="pyt-word pyt-ltr" x="738" y="320" font-size="12" text-anchor="start">=</text>
<text class="pyt-word pyt-ltr" x="195" y="344" font-size="21" text-anchor="start">A</text>
<text class="pyt-word pyt-ltr" x="586" y="329" font-size="31" text-anchor="start">,)</text>
<text class="pyt-word pyt-ltr" x="612" y="329" font-size="32" text-anchor="start">AACB‏</text>
<text class="pyt-word pyt-ltr" x="1374" y="384" font-size="25" text-anchor="start">5</text>
<text class="pyt-word pyt-rtl" x="1356" y="386" font-size="18" text-anchor="end">סימ</text>
<text class="pyt-word pyt-ltr" x="1247" y="382" font-size="12" text-anchor="start">=</text>
<text class="pyt-word pyt-ltr" x="1180" y="384" font-size="25" text-anchor="start">8</text>
<text class="pyt-word pyt-ltr" x="1157" y="395" font-size="12" text-anchor="start">,</text>
<text class="pyt-word pyt-ltr" x="1100" y="384" font-size="25" text-anchor="start">15</text>
<text class="pyt-word pyt-rtl" x="1415" y="449" font-size="25" text-anchor="end">(א)</text>
<text class="pyt-word pyt-rtl" x="1343" y="454" font-size="25" text-anchor="end">חשבו</text>
<text class="pyt-word pyt-rtl" x="1256" y="455" font-size="40" text-anchor="end">את</text>
<text class="pyt-word pyt-rtl" x="1343" y="454" font-size="25" text-anchor="end">אורך</text>
<text class="pyt-word pyt-rtl" x="1110" y="448" font-size="18" text-anchor="end">הניצב</text>
<text class="pyt-word pyt-ltr" x="998" y="455" font-size="40" text-anchor="start">|</text>
<text class="pyt-word pyt-ltr" x="911" y="446" font-size="25" text-anchor="start">08₪).</text>
<text class="pyt-word pyt-ltr" x="317" y="429" font-size="21" text-anchor="start">5</text>
<text class="pyt-word pyt-rtl" x="1415" y="511" font-size="25" text-anchor="end">(ב)</text>
<text class="pyt-word pyt-rtl" x="1343" y="511" font-size="19" text-anchor="end">חשבו</text>
<text class="pyt-word pyt-rtl" x="1255" y="519" font-size="41" text-anchor="end">את</text>
<text class="pyt-word pyt-rtl" x="1343" y="511" font-size="19" text-anchor="end">שטח</text>
<text class="pyt-word pyt-ltr" x="984" y="509" font-size="26" text-anchor="start">AABC‏</text>
<text class="pyt-word pyt-ltr" x="960" y="514" font-size="10" text-anchor="start">.</text>
<text class="pyt-word pyt-rtl" x="1415" y="573" font-size="25" text-anchor="end">(ג)</text>
<text class="pyt-word pyt-rtl" x="1343" y="579" font-size="26" text-anchor="end">חשבו</text>
<text class="pyt-word pyt-rtl" x="1257" y="580" font-size="41" text-anchor="end">את</text>
<text class="pyt-word pyt-rtl" x="1343" y="579" font-size="26" text-anchor="end">אורך</text>
<text class="pyt-word pyt-rtl" x="1110" y="573" font-size="19" text-anchor="end">הגובה</text>
<text class="pyt-word pyt-rtl" x="1010" y="571" font-size="26" text-anchor="end">ליתר</text>
<text class="pyt-word pyt-ltr" x="844" y="571" font-size="26" text-anchor="start">LCD‏</text>
<text class="pyt-word pyt-ltr" x="459" y="585" font-size="22" text-anchor="start">8</text>
<text class="pyt-word pyt-rtl" x="211" y="585" font-size="22" text-anchor="end">ה</text>
<text class="pyt-word pyt-ltr" x="1159" y="1883" font-size="20" text-anchor="start">20</text>
<text class="pyt-word pyt-rtl" x="1146" y="1943" font-size="19" text-anchor="end">(א)</text>
<text class="pyt-word pyt-ltr" x="1063" y="1941" font-size="20" text-anchor="start">20</text>
<text class="pyt-word pyt-rtl" x="1050" y="1942" font-size="14" text-anchor="end">סיימ</text>
<text class="pyt-word pyt-ltr" x="972" y="1938" font-size="10" text-anchor="start">=</text>
<text class="pyt-word pyt-ltr" x="926" y="1941" font-size="20" text-anchor="start">08)</text>
<text class="pyt-word pyt-ltr" x="799" y="1943" font-size="20" text-anchor="start">)2(</text>
<text class="pyt-word pyt-ltr" x="732" y="1941" font-size="20" text-anchor="start">150</text>
<text class="pyt-word pyt-rtl" x="716" y="1942" font-size="14" text-anchor="end">סמ&quot;ר</text>
<text class="pyt-word pyt-ltr" x="622" y="1938" font-size="10" text-anchor="start">=</text>
<text class="pyt-word pyt-rtl" x="609" y="1948" font-size="27" text-anchor="end">אא</text>
<text class="pyt-word pyt-ltr" x="395" y="1943" font-size="19" text-anchor="start">()</text>
<text class="pyt-word pyt-ltr" x="340" y="1941" font-size="20" text-anchor="start">12</text>
<text class="pyt-word pyt-rtl" x="323" y="1942" font-size="14" text-anchor="end">סיימ</text>
<text class="pyt-word pyt-ltr" x="244" y="1938" font-size="10" text-anchor="start">=</text>
<text class="pyt-word pyt-rtl" x="234" y="1941" font-size="20" text-anchor="end">תס</text>
</g>
</svg>
