<?xml version="1.0" encoding="UTF-8"?>
<svg xmlns="http://www.w3.org/2000/svg" width="1489" height="2105" viewBox="0 0 1489 2105">
<style>
  .pyt-art path:not([fill="rgb(255,255,255)"]):not([fill="rgb(254,254,254)"]):not([fill="rgb(253,253,253)"]):not([fill="rgb(252,252,252)"]){ fill:#000; }
  .pyt-word{ fill:#000; font-family:'Rubik',sans-serif; font-weight:400; }
  .pyt-rtl{ direction:rtl; unicode-bidi:plaintext; }
  .pyt-ltr{ direction:ltr; unicode-bidi:plaintext; }
</style>
<rect width="100%" height="100%" fill="#fff"/>
<g class="pyt-art">
<path fill="rgb(129,125,129)" stroke="rgb(129,125,129)" stroke-width="0" opacity="1" d="M 889.5 316 L 901 317 L 901 322.5 L 899.5 323 Q 897.9 318.1 890.5 319 Q 883.8 321.3 886 332.5 L 888.5 336 L 896.5 337 L 901 335 Q 902.1 337.7 899.5 337 Q 896.9 340.9 889.5 340 L 882 334.5 L 881 325.5 L 885.5 318 L 889.5 316 Z " /><path fill="rgb(129,125,129)" stroke="rgb(129,125,129)" stroke-width="0" opacity="1" d="M 847.5 317 L 858 339 L 851.5 339 L 851 337.5 L 851 335.5 L 848.5 332 Q 842.3 330.8 841 334.5 L 842 339 L 836 338.5 L 839 335.5 L 844 321.5 L 847.5 317 Z M 846 324 L 843 329 L 848 330 Q 849 325 846 324 Z " /><path fill="rgb(129,125,129)" stroke="rgb(129,125,129)" stroke-width="0" opacity="1" d="M 860.5 317 Q 871.7 315.3 877 319.5 L 876 327.5 L 879 331.5 L 879 334.5 L 875.5 339 L 861.5 339 L 861 337.5 L 863 335.5 L 863 321.5 L 860.5 317 Z M 867 319 L 866 322 Q 865 326 869 327 L 872 326 Q 874 325 873 322 L 867 319 Z M 869 329 L 868 330 Q 865 329 866 336 Q 867 338 872 337 Q 875 336 874 332 L 869 329 Z " /><path fill="rgb(129,125,129)" stroke="rgb(129,125,129)" stroke-width="0" opacity="1" d="M 904.5 317 L 919.5 318 L 924 322.5 L 925 330.5 L 922 337 L 917.5 339 L 904 339 L 905 336.5 L 905 318.5 L 904.5 317 Z M 912 318 L 909 321 L 909 336 L 911 337 L 916 337 L 919 335 L 921 330 L 919 323 L 912 318 Z " /><path fill="rgb(129,125,129)" stroke="rgb(129,125,129)" stroke-width="0" opacity="1" d="M 941.5 320 L 955 322 L 956 324.5 L 956 337.5 Q 954.5 340.5 953 337.5 L 953 326.5 L 951.5 326 L 946.5 325 L 945 328.5 Q 947.5 330 946 335.5 L 945 339 L 938.5 339 L 938 337.5 Q 939.2 334.3 943 335 L 942 325 L 939 323.5 L 941.5 320 Z " /><path fill="rgb(129,125,129)" stroke="rgb(129,125,129)" stroke-width="0" opacity="1" d="M 959 320 Q 963.7 320.5 966 324.5 L 967 327.5 L 962.5 334 L 961 331.5 L 963 327.5 L 958 323.5 L 959 320 Z " /><path fill="rgb(129,125,129)" stroke="rgb(129,125,129)" stroke-width="0" opacity="1" d="M 971.5 320 L 977 324.5 L 977 337.5 L 975.5 339 L 974 338.5 L 974 327.5 L 969 323.5 L 971.5 320 Z " /><path fill="rgb(129,125,129)" stroke="rgb(129,125,129)" stroke-width="0" opacity="1" d="M 982.5 320 L 986 322 L 988 325.5 L 988 337.5 L 985 339 L 985 329.5 L 980 323.5 L 980 321 L 982.5 320 Z " /><path fill="rgb(129,125,129)" stroke="rgb(129,125,129)" stroke-width="0" opacity="1" d="M 992.5 320 L 999 324.5 L 997.5 328 L 995 328.5 L 998 336.5 L 995 338.5 Q 991.9 334.1 993 325.5 L 991 321.5 L 992.5 320 Z " /><path fill="rgb(129,125,129)" stroke="rgb(129,125,129)" stroke-width="0" opacity="1" d="M 1005.5 320 Q 1010.3 319.3 1011 322.5 L 1009.5 325 Q 1003.5 326.5 1002 323.5 L 1003.5 321 L 1005.5 320 Z " /><path fill="rgb(129,125,129)" stroke="rgb(129,125,129)" stroke-width="0" opacity="1" d="M 1016.5 320 L 1023.5 321 L 1027 323.5 L 1028 335.5 L 1027 339 L 1024 337.5 L 1024 326.5 L 1022.5 326 L 1021.5 325 L 1015 325 Q 1014 321.2 1016.5 320 Z " /><path fill="rgb(129,125,129)" stroke="rgb(129,125,129)" stroke-width="0" opacity="1" d="M 1031.5 320 L 1035 329 Q 1037.7 330.1 1037 327.5 L 1037 325.5 L 1038 321 L 1041 322.5 Q 1041.2 331.2 1036 334.5 Q 1037.3 337.3 1038.5 335 L 1040.5 335 L 1045 330.5 L 1044 323.5 L 1048 321 Q 1050.1 333.8 1042.5 338 L 1035.5 340 L 1032 334.5 L 1032 330.5 L 1029 323.5 L 1031.5 320 Z " /><path fill="rgb(129,125,129)" stroke="rgb(129,125,129)" stroke-width="0" opacity="1" d="M 1053.5 320 L 1059 324.5 Q 1060.5 331.5 1056.5 333 Q 1053.9 333.8 1055 330.5 L 1056 327.5 L 1051 324 L 1053.5 320 Z " /><path fill="rgb(129,125,129)" stroke="rgb(129,125,129)" stroke-width="0" opacity="1" d="M 831.5 335 L 834 336.5 Q 835.2 341.1 830 339 L 831.5 335 Z " /><path fill="rgb(129,125,129)" stroke="rgb(129,125,129)" stroke-width="0" opacity="1" d="M 548 489 L 975.5 489 L 978 491.5 L 1036 568.5 L 1038 573 Q 1040.7 571.9 1040 574.5 L 1057 596.5 L 1059 601 Q 1061.7 599.9 1061 602.5 L 1072 618 Q 1074.7 616.9 1074 619.5 L 1117 675.5 L 1130 695 Q 1132.7 693.9 1132 696.5 L 1147 715.5 L 1151 723 Q 1153.7 721.9 1153 724.5 L 1164 740 Q 1166.7 738.9 1166 741.5 L 1190 772.5 L 1190 775 L 1007.5 775 L 1007 772 L 1186 771.5 L 1102 661.5 L 1098 654 Q 1095.3 655.1 1096 652.5 L 1072 621.5 L 1070 617 Q 1067.3 618.1 1068 615.5 L 1064 609 Q 1061.3 610.1 1062 607.5 L 1049 589 Q 1046.3 590.1 1047 587.5 L 977.5 495 L 976 497.5 L 976 739.5 L 977.5 741 L 1004 741.5 L 975 742 L 975 774.5 L 974.5 775 L 582 775 L 582.5 772 L 974 772 L 974 492.5 L 972.5 491 L 582.5 491 L 581 491.5 L 580.5 490 L 550 490 L 550 522 L 578.5 522 L 578.5 523 L 551.5 523 L 551 523.5 L 551 742 L 581 742.5 L 550 743 L 550 775 L 579.5 775 L 579.5 776 L 550.5 776 L 548 775 L 548 489 Z " /><path fill="rgb(129,125,129)" stroke="rgb(129,125,129)" stroke-width="0" opacity="1" d="M 1053.5 860 Q 1060 858.5 1061.5 862 L 1063.5 861 Q 1065.8 861.8 1065 865.5 L 1063.5 868 L 1060.5 864 L 1054.5 863 Q 1047.8 865.3 1050 876.5 L 1052.5 880 L 1062 881 Q 1060.9 878.3 1063.5 879 L 1064.5 881 Q 1061 884.5 1053.5 884 L 1047 881 Q 1043.7 877.1 1045 867.5 L 1047 864 Q 1050 865 1049 862 L 1051.5 862 L 1053.5 860 Z " /><path fill="rgb(129,125,129)" stroke="rgb(129,125,129)" stroke-width="0" opacity="1" d="M 1010.5 861 Q 1017.4 869.3 1020 881 Q 1023 880 1022 883 L 1015 883 L 1015 878.5 Q 1013.8 874.8 1007.5 876 Q 1003.8 877.5 1005 883 L 1000 883 L 1000 881 Q 1003 882.3 1002 878.5 L 1006 872.5 L 1006 869.5 L 1010.5 861 Z M 1008 869 Q 1007 873 1010 874 L 1013 873 L 1012 871 L 1008 869 Z " /><path fill="rgb(129,125,129)" stroke="rgb(129,125,129)" stroke-width="0" opacity="1" d="M 1025.5 861 Q 1034.8 860.2 1040 862 L 1042 865.5 L 1042 868.5 Q 1039.3 869.6 1040 873 Q 1043 871.8 1042 875.5 L 1043 877.5 L 1039.5 883 L 1025.5 883 L 1025 881.5 L 1026 880.5 L 1026 862.5 L 1025.5 861 Z M 1031 863 Q 1029 869 1033 871 L 1036 870 Q 1038 869 1037 866 L 1031 863 Z M 1031 873 L 1031 881 L 1036 881 Q 1039 880 1038 876 L 1031 873 Z " /><path fill="rgb(129,125,129)" stroke="rgb(129,125,129)" stroke-width="0" opacity="1" d="M 1068.5 861 L 1083.5 862 L 1087 865.5 Q 1090.4 868.1 1089 875.5 L 1083.5 882 L 1081.5 883 L 1068 883 L 1069 880.5 L 1069 862.5 L 1068.5 861 Z M 1076 862 L 1074 864 L 1074 881 L 1080 881 L 1083 879 L 1085 874 L 1083 867 L 1076 862 Z " /><path fill="rgb(129,125,129)" stroke="rgb(129,125,129)" stroke-width="0" opacity="1" d="M 992.5 864 Q 996.5 863.5 997 866.5 L 995 877 Q 992.3 878.1 993 875.5 L 993 873.5 L 993 869.5 L 991 865.5 L 992.5 864 Z " /><path fill="rgb(129,125,129)" stroke="rgb(129,125,129)" stroke-width="0" opacity="1" d="M 1281.5 864 Q 1285 866.5 1292.5 865 L 1295 866 L 1295 881.5 L 1293.5 883 L 1292 882.5 L 1292 871.5 L 1291 869 L 1280.5 869 L 1279 867.5 L 1281.5 864 Z " /><path fill="rgb(129,125,129)" stroke="rgb(129,125,129)" stroke-width="0" opacity="1" d="M 1308.5 864 Q 1313.5 863.5 1314 867.5 L 1316 873.5 L 1316 878.5 L 1314 883 L 1303.5 883 L 1303 881.5 L 1305.5 879 L 1313 879 L 1312 871.5 L 1309.5 869 L 1305 870 L 1299.5 883 Q 1296.5 883.9 1298 879.5 Q 1300.6 876.6 1300 870.5 L 1298 866.5 L 1300.5 865 Q 1303.5 871 1306.5 865 L 1308.5 864 Z " /><path fill="rgb(129,125,129)" stroke="rgb(129,125,129)" stroke-width="0" opacity="1" d="M 1280 873 L 1283 873 L 1283 881.5 L 1280 883 L 1280 873 Z " /><path fill="rgb(129,125,129)" stroke="rgb(129,125,129)" stroke-width="0" opacity="1" d="M 993.5 879 L 995 879 L 995 883 Q 990.9 884.7 992 880.5 L 993.5 879 Z " />
</g>
<g class="pyt-text">
<text class="pyt-word pyt-ltr" x="1298" y="203" font-size="20" text-anchor="start">9</text>
<text class="pyt-word pyt-rtl" x="1380" y="335" font-size="23" text-anchor="end">לפניכם</text>
<text class="pyt-word pyt-rtl" x="1280" y="336" font-size="18" text-anchor="end">סרטוט</text>
<text class="pyt-word pyt-rtl" x="1181" y="335" font-size="23" text-anchor="end">של</text>
<text class="pyt-word pyt-rtl" x="1134" y="335" font-size="17" text-anchor="end">טרפז</text>
<text class="pyt-word pyt-ltr" x="1340" y="397" font-size="20" text-anchor="start">BE‏</text>
<text class="pyt-word pyt-rtl" x="1329" y="397" font-size="17" text-anchor="end">גובה</text>
<text class="pyt-word pyt-rtl" x="1260" y="398" font-size="23" text-anchor="end">לצלע</text>
<text class="pyt-word pyt-ltr" x="1135" y="397" font-size="22" text-anchor="start">.CD‏</text>
<text class="pyt-word pyt-ltr" x="529" y="479" font-size="15" text-anchor="start">A</text>
<text class="pyt-word pyt-ltr" x="970" y="476" font-size="16" text-anchor="start">B‏</text>
<text class="pyt-word pyt-ltr" x="552" y="514" font-size="24" text-anchor="start">|[</text>
<text class="pyt-word pyt-ltr" x="944" y="643" font-size="16" text-anchor="start">8</text>
<text class="pyt-word pyt-rtl" x="935" y="643" font-size="16" text-anchor="end">ס&quot;מ</text>
<text class="pyt-word pyt-ltr" x="977" y="766" font-size="25" text-anchor="start">|[</text>
<text class="pyt-word pyt-ltr" x="552" y="767" font-size="24" text-anchor="start">-</text>
<text class="pyt-word pyt-ltr" x="1192" y="793" font-size="16" text-anchor="start">6</text>
<text class="pyt-word pyt-ltr" x="1103" y="803" font-size="15" text-anchor="start">6</text>
<text class="pyt-word pyt-rtl" x="1095" y="803" font-size="16" text-anchor="end">ס&quot;מ</text>
<text class="pyt-word pyt-ltr" x="524" y="806" font-size="41" text-anchor="start">Db</text>
<text class="pyt-word pyt-ltr" x="724" y="803" font-size="16" text-anchor="start">n&quot;o</text>
<text class="pyt-word pyt-ltr" x="779" y="803" font-size="15" text-anchor="start">12</text>
<text class="pyt-word pyt-ltr" x="968" y="797" font-size="16" text-anchor="start">E‏</text>
<text class="pyt-word pyt-ltr" x="1354" y="879" font-size="17" text-anchor="start">NX‏</text>
<text class="pyt-word pyt-rtl" x="1266" y="884" font-size="23" text-anchor="end">היקף</text>
<text class="pyt-word pyt-rtl" x="1187" y="879" font-size="19" text-anchor="end">הטרפז</text>
<text class="pyt-word pyt-rtl" x="1316" y="946" font-size="23" text-anchor="end">הַציגו</text>
<text class="pyt-word pyt-rtl" x="1236" y="941" font-size="17" text-anchor="end">את</text>
<text class="pyt-word pyt-ltr" x="1137" y="946" font-size="23" text-anchor="start">TIT‏</text>
<text class="pyt-word pyt-rtl" x="1125" y="946" font-size="23" text-anchor="end">הפתרון:</text>
</g>
</svg>
