<?xml version="1.0" encoding="UTF-8"?>
<svg xmlns="http://www.w3.org/2000/svg" width="1021" height="47" viewBox="0 0 1021 47">
<style>
  .pyt-art path:not([fill="rgb(255,255,255)"]):not([fill="rgb(254,254,254)"]):not([fill="rgb(253,253,253)"]):not([fill="rgb(252,252,252)"]){ fill:#000; }
  .pyt-word{ fill:#000; font-family:'Rubik',sans-serif; font-weight:400; }
  .pyt-rtl{ direction:rtl; unicode-bidi:plaintext; }
  .pyt-ltr{ direction:ltr; unicode-bidi:plaintext; }
</style>
<rect width="100%" height="100%" fill="#fff"/>
<g class="pyt-art">
<path fill="rgb(107,107,107)" stroke="rgb(107,107,107)" stroke-width="0" opacity="1" d="M 778.5 9 L 806 9.5 L 778.5 10 L 778.5 9 Z " /><path fill="rgb(107,107,107)" stroke="rgb(107,107,107)" stroke-width="0" opacity="1" d="M 777.5 11 L 778 14.5 L 775 33 L 772 31.5 L 767.5 23 L 765 22.5 L 768.5 21 L 773.5 28 L 776 12.5 L 777.5 11 Z " /><path fill="rgb(107,107,107)" stroke="rgb(107,107,107)" stroke-width="0" opacity="1" d="M 783.5 15 L 790 16 Q 791.3 20.6 788.5 22 L 787 22.5 L 791 28.5 L 788.5 32 Q 782.5 33.5 781 30.5 Q 780 24.5 784 23.5 Q 780.2 22.7 781 17.5 L 783.5 15 Z M 785 16 L 783 20 L 787 22 L 788 20 Q 790 14 785 16 Z M 785 25 L 783 27 Q 782 30 785 31 Q 790 33 788 28 L 785 25 Z " /><path fill="rgb(107,107,107)" stroke="rgb(107,107,107)" stroke-width="0" opacity="1" d="M 800.5 15 L 802 15.5 L 802 25.5 Q 804.7 24.9 804 28 L 802 28 Q 803.7 33.2 800 32 L 800 28 L 793.5 28 Q 790.3 26.3 794 24.5 L 800.5 15 Z M 798 19 L 796 24 L 795 26 Q 799 27 800 25 Q 802 18 798 19 Z " /><path fill="rgb(107,107,107)" stroke="rgb(107,107,107)" stroke-width="0" opacity="1" d="M 890.5 17 L 891 24.5 L 890 26.5 Q 892.5 28 891 33.5 L 889 32.5 L 888 23.5 L 890.5 17 Z " /><path fill="rgb(107,107,107)" stroke="rgb(107,107,107)" stroke-width="0" opacity="1" d="M 814.5 21 L 817 21.5 L 814.5 22 L 814.5 21 Z " /><path fill="rgb(107,107,107)" stroke="rgb(107,107,107)" stroke-width="0" opacity="1" d="M 814.5 25 L 817 25.5 L 814.5 26 L 814.5 25 Z " />
</g>
<g class="pyt-text">
<text class="pyt-word pyt-ltr" x="50" y="35" font-size="33" text-anchor="start">+195</text>
<text class="pyt-word pyt-ltr" x="113" y="25" font-size="10" text-anchor="start">=</text>
<text class="pyt-word pyt-ltr" x="137" y="29" font-size="15" text-anchor="start">13.96</text>
<text class="pyt-word pyt-rtl" x="218" y="31" font-size="15" text-anchor="end">ה)‎</text>
<text class="pyt-word pyt-ltr" x="307" y="35" font-size="33" text-anchor="start">N119</text>
<text class="pyt-word pyt-ltr" x="370" y="25" font-size="10" text-anchor="start">=</text>
<text class="pyt-word pyt-ltr" x="393" y="29" font-size="15" text-anchor="start">10.91</text>
<text class="pyt-word pyt-ltr" x="455" y="31" font-size="15" text-anchor="start">(1</text>
<text class="pyt-word pyt-ltr" x="556" y="27" font-size="21" text-anchor="start">+44</text>
<text class="pyt-word pyt-ltr" x="610" y="35" font-size="33" text-anchor="start">=</text>
<text class="pyt-word pyt-ltr" x="629" y="29" font-size="23" text-anchor="start">6.63</text>
<text class="pyt-word pyt-rtl" x="905" y="31" font-size="15" text-anchor="end">ב</text>
<text class="pyt-word pyt-rtl" x="879" y="29" font-size="15" text-anchor="end">7ו.9=</text>
<text class="pyt-word pyt-ltr" x="971" y="30" font-size="17" text-anchor="start">3x</text>
</g>
</svg>
