<?xml version="1.0" encoding="UTF-8"?>
<svg xmlns="http://www.w3.org/2000/svg" width="406" height="37" viewBox="0 0 406 37">
<style>
  .pyt-art path:not([fill="rgb(255,255,255)"]):not([fill="rgb(254,254,254)"]):not([fill="rgb(253,253,253)"]):not([fill="rgb(252,252,252)"]){ fill:#000; }
  .pyt-word{ fill:#000; font-family:'Rubik',sans-serif; font-weight:400; }
  .pyt-rtl{ direction:rtl; unicode-bidi:plaintext; }
  .pyt-ltr{ direction:ltr; unicode-bidi:plaintext; }
</style>
<rect width="100%" height="100%" fill="#fff"/>
<g class="pyt-art">
<path fill="rgb(90,90,90)" stroke="rgb(90,90,90)" stroke-width="0" opacity="1" d="M 80.5 2 L 108 2.5 L 80 3 L 79 5.5 L 77 22.5 L 75.5 25 L 69.5 15 L 67 14.5 L 70.5 13 L 74 20 Q 77.7 21.4 76 15.5 L 78 4.5 L 80.5 2 Z " /><path fill="rgb(90,90,90)" stroke="rgb(90,90,90)" stroke-width="0" opacity="1" d="M 244.5 2 L 272 2.5 L 244 3 L 241 25 Q 238.3 26.1 239 23.5 L 235 15 L 231 14.5 L 236 13 L 239.5 20 L 241 18.5 L 242 7.5 L 244.5 2 Z " /><path fill="rgb(90,90,90)" stroke="rgb(90,90,90)" stroke-width="0" opacity="1" d="M 87.5 8 L 89 8.5 L 89 23.5 L 89.5 25 L 85 24.5 L 86 23.5 L 86 10.5 L 85.5 9 L 87.5 8 Z " /><path fill="rgb(90,90,90)" stroke="rgb(90,90,90)" stroke-width="0" opacity="1" d="M 97.5 8 Q 103 7 104 10.5 L 102 16 Q 104.7 14.9 104 17.5 L 105 20.5 L 101.5 25 Q 93.9 26.5 95 23 L 100.5 24 L 103 20.5 L 100.5 17 L 98 16.5 L 101 14.5 L 102 12.5 L 101 10 L 96.5 11 L 96 9.5 L 97.5 8 Z " /><path fill="rgb(90,90,90)" stroke="rgb(90,90,90)" stroke-width="0" opacity="1" d="M 140.5 8 Q 145 7 146 9.5 L 145 15.5 Q 148 16.5 147 21.5 L 146 24 L 138 25 Q 136.9 22.3 139.5 23 L 143.5 24 Q 145.8 23.3 145 19.5 L 141 16.5 L 144 15 Q 145 11.2 142.5 10 L 139 9.5 L 140.5 8 Z " /><path fill="rgb(90,90,90)" stroke="rgb(90,90,90)" stroke-width="0" opacity="1" d="M 164.5 8 L 166 8.5 L 161 12.5 Q 159.9 15.8 162.5 15 L 164.5 14 Q 169 15 168 21.5 Q 167 26 160.5 25 Q 156.1 23.4 157 16.5 L 162.5 9 L 164.5 8 Z M 160 16 L 161 23 L 161 24 L 165 24 L 166 22 L 165 18 Q 164 15 160 16 Z " /><path fill="rgb(90,90,90)" stroke="rgb(90,90,90)" stroke-width="0" opacity="1" d="M 249.5 8 Q 254.8 6.8 256 9.5 L 257 11.5 L 254.5 15 L 253 15.5 L 257 19.5 L 257 22.5 L 253.5 25 L 253.5 24 Q 256.1 24.8 255 21.5 L 251.5 17 Q 248.3 17.8 249 22.5 L 252 24.5 L 249.5 25 Q 246.3 24.3 247 19.5 Q 252.5 17 248 14.5 L 247 11.5 L 249.5 8 Z M 251 9 L 249 11 L 253 15 L 255 11 Q 254 8 251 9 Z " /><path fill="rgb(90,90,90)" stroke="rgb(90,90,90)" stroke-width="0" opacity="1" d="M 261 8 L 269.5 8 L 270 10.5 L 265 25 L 263 24.5 L 268 10 L 260.5 11 L 261 9.5 L 261 8 Z " /><path fill="rgb(90,90,90)" stroke="rgb(90,90,90)" stroke-width="0" opacity="1" d="M 305.5 8 Q 311 7 312 10.5 L 313 16.5 L 310 23 L 305.5 25 L 309 20.5 L 310 18.5 L 310 16.5 Q 311.5 10.5 308.5 9 Q 303.7 7.3 305 11.5 L 304 13.5 L 305 17 L 308 18.5 L 305.5 19 L 303 18 L 302 12.5 L 305.5 8 Z " /><path fill="rgb(90,90,90)" stroke="rgb(90,90,90)" stroke-width="0" opacity="1" d="M 324.5 8 Q 330 7 331 10.5 L 329 15.5 Q 332.3 16.8 331 22.5 Q 329.1 26.8 322 25 Q 320.9 22.3 323.5 23 L 327.5 24 Q 330 23 329 18.5 L 325 16.5 L 328 14.5 Q 330.2 8.2 324.5 10 L 323 10.5 L 324.5 8 Z " /><path fill="rgb(90,90,90)" stroke="rgb(90,90,90)" stroke-width="0" opacity="1" d="M 337.5 8 Q 343 7 344 10.5 L 342 15.5 Q 345.3 16.8 344 22.5 Q 342.1 26.8 335 25 Q 333.9 22.3 336.5 23 L 340.5 24 Q 343 23 342 18.5 L 338 16.5 L 341 14.5 Q 343.2 8.2 337.5 10 L 336 10.5 L 337.5 8 Z " /><path fill="rgb(90,90,90)" stroke="rgb(90,90,90)" stroke-width="0" opacity="1" d="M 26.5 14 L 30 14 Q 28.7 18.1 32 17 L 33.5 14 L 35 14.5 Q 31.5 15 32 19.5 L 35 24 L 37 24.5 L 32 25 L 30.5 21 Q 28.3 20.3 29 22.5 L 28 25 L 25 24.5 L 27 24 L 29 18.5 L 26.5 14 Z " /><path fill="rgb(90,90,90)" stroke="rgb(90,90,90)" stroke-width="0" opacity="1" d="M 44.5 14 L 58 14.5 L 44.5 15 L 44.5 14 Z " /><path fill="rgb(90,90,90)" stroke="rgb(90,90,90)" stroke-width="0" opacity="1" d="M 116.5 14 L 129 14.5 L 116.5 15 L 116.5 14 Z " /><path fill="rgb(90,90,90)" stroke="rgb(90,90,90)" stroke-width="0" opacity="1" d="M 190.5 14 Q 193.8 12.9 193 15.5 L 196.5 21 L 199 14 L 201 14.5 L 193.5 30 Q 188.7 31.3 190 28 Q 193.8 29 195 26.5 L 195 23.5 L 190.5 14 Z " /><path fill="rgb(90,90,90)" stroke="rgb(90,90,90)" stroke-width="0" opacity="1" d="M 209.5 14 L 223 14.5 L 209.5 15 L 209.5 14 Z " /><path fill="rgb(90,90,90)" stroke="rgb(90,90,90)" stroke-width="0" opacity="1" d="M 280.5 14 L 294 14.5 L 280.5 15 L 280.5 14 Z " /><path fill="rgb(90,90,90)" stroke="rgb(90,90,90)" stroke-width="0" opacity="1" d="M 44.5 18 L 58 18.5 L 44.5 19 L 44.5 18 Z " /><path fill="rgb(90,90,90)" stroke="rgb(90,90,90)" stroke-width="0" opacity="1" d="M 116.5 18 L 129 18.5 L 116.5 19 L 116.5 18 Z " /><path fill="rgb(90,90,90)" stroke="rgb(90,90,90)" stroke-width="0" opacity="1" d="M 209.5 18 L 223 18.5 L 209.5 19 L 209.5 18 Z " /><path fill="rgb(90,90,90)" stroke="rgb(90,90,90)" stroke-width="0" opacity="1" d="M 280.5 18 L 294 18.5 L 280.5 19 L 280.5 18 Z " /><path fill="rgb(90,90,90)" stroke="rgb(90,90,90)" stroke-width="0" opacity="1" d="M 151 23 Q 155.1 21.7 154 25 Q 149.9 26.3 151 23 Z " /><path fill="rgb(90,90,90)" stroke="rgb(90,90,90)" stroke-width="0" opacity="1" d="M 177 23 L 181 24.5 Q 181.5 28.5 178.5 29 L 180 26.5 Q 180.7 23.5 177 25 L 177 23 Z " /><path fill="rgb(90,90,90)" stroke="rgb(90,90,90)" stroke-width="0" opacity="1" d="M 316 23 Q 320.1 21.7 319 25 Q 314.9 26.3 316 23 Z " />
</g>
<g class="pyt-text">
<text class="pyt-word pyt-ltr" x="384" y="24" font-size="15" text-anchor="start">0</text>
</g>
</svg>
